<?xml version="1.0" encoding="utf-8"?>
<!-- Generator: Adobe Illustrator 21.1.0, SVG Export Plug-In . SVG Version: 6.00 Build 0)  -->
<svg version="1.1" xmlns="http://www.w3.org/2000/svg" xmlns:xlink="http://www.w3.org/1999/xlink" x="0px" y="0px"
	 viewBox="0 0 449.7 139.5" style="enable-background:new 0 0 449.7 139.5;" xml:space="preserve">
<style type="text/css">
	.st0{display:none;}
	.st1{display:inline;fill:#FFF1C9;}
	.st2{display:inline;}
	.st3{fill:#DECEA2;}
	.st4{fill:#242D32;}
	.st5{fill:#3A3A46;}
	.st6{fill:#E23E22;}
	.st7{fill:#C3321A;}
	.st8{fill:#B9331C;}
	.st9{fill:#62626F;}
	.st10{fill:#CCCECF;}
	.st11{fill:#8787A3;}
	.st12{fill:#CEE3F0;}
	.st13{fill:#FFB40C;}
	.st14{fill:#5B808F;}
	.st15{fill:#AA2F0F;}
	.st16{fill:#93290D;}
	.st17{fill:#DBDBDB;}
	.st18{fill:#D8D8A6;}
	.st19{fill:#808080;}
	.st20{fill:#192536;}
	.st21{fill:#141B25;}
	.st22{fill:#19212E;}
	.st23{fill:#11161F;}
	.st24{fill:#17171C;}
	.st25{fill:#4A4A54;}
	.st26{fill:#F3F6E8;}
	.st27{fill:#273A54;}
	.st28{fill:#474757;}
	.st29{fill:#39547A;}
	.st30{fill:#C82734;}
	.st31{fill:#FFFFFF;}
	.st32{fill:#FFFFFF;stroke:#CCCECF;stroke-width:0.5;stroke-miterlimit:10;}
	.st33{fill:#E1E3E5;}
	.st34{fill:#C0C2C3;}
	.st35{fill:#EA772A;}
	.st36{fill:#D34D29;}
	.st37{fill:#A03520;}
	.st38{fill:#E1E2E3;}
	.st39{fill:#B7B9BB;}
	.st40{fill:#C44827;}
	.st41{fill:#F4EFE2;}
	.st42{fill:#DAD6CA;}
	.st43{fill:#B2B4B5;}
	.st44{fill:#344891;}
	.st45{fill:#3C60A6;}
	.st46{fill:#2E3F80;}
	.st47{fill:#293973;}
	.st48{fill:#BAA466;}
</style>
<g id="BACKGROUND" class="st0">
	<rect id="XMLID_196_" x="-139.1" y="-584.3" class="st1" width="800" height="800"/>
</g>
<g id="OBJECTS">
	<g id="XMLID_823_">
		<g id="XMLID_200_" class="st0">
			<g id="XMLID_161_" class="st2">
				<g id="XMLID_653_">
					<ellipse class="st3" cx="259.5" cy="-221.6" rx="217.4" ry="12.1"/>
				</g>
			</g>
			<g id="XMLID_11_" class="st2">
				<g id="XMLID_120_">
					<g id="XMLID_504_">
						<path class="st4" d="M336.2-309c-0.2,0-0.4-0.1-0.4-0.3l-6.6-26.8c-0.1-0.2,0.1-0.5,0.3-0.6c0.2-0.1,0.5,0.1,0.6,0.3l6.6,26.8
							c0.1,0.2-0.1,0.5-0.3,0.6C336.2-309,336.2-309,336.2-309z"/>
					</g>
				</g>
				<g id="XMLID_109_">
					<g id="XMLID_14_">
						<g id="XMLID_98_">
							<g id="XMLID_652_">
								<path class="st5" d="M320.1-236.1h-34.6c-2.3,0-4.1-1.8-4.1-4.1l0,0c0-2.3,1.8-4.1,4.1-4.1h34.6c2.3,0,4.1,1.8,4.1,4.1l0,0
									C324.2-237.9,322.4-236.1,320.1-236.1z"/>
							</g>
						</g>
						<g id="XMLID_73_">
							<g id="XMLID_651_">
								<rect x="174.2" y="-241.8" class="st5" width="192.3" height="3.3"/>
							</g>
						</g>
					</g>
					<g id="XMLID_62_">
						<g id="XMLID_650_">
							<polygon class="st5" points="184.5,-246.5 93.7,-246.5 93.7,-287.9 160.4,-287.9 							"/>
						</g>
					</g>
					<g id="XMLID_97_">
						<g id="XMLID_649_">
							<polygon class="st5" points="459,-247.1 452.6,-243.7 371.7,-243.7 371.4,-285.9 431,-287.9 							"/>
						</g>
					</g>
				</g>
				<g id="XMLID_124_">
					<g id="XMLID_648_">
						<path class="st6" d="M485.6-265.3l-9,15.8h-8l-1.8,2.3h-16.3l-4.3-3c-0.8-19.2-16.6-34.5-36-34.5c-15.5,0-28.7,9.8-33.8,23.5
							c-0.2,0.6-0.4,1.2-0.6,1.8c-0.1,0.3-0.2,0.5-0.2,0.8c-0.3,1.2-0.6,2.4-0.8,3.7c-0.1,0.3-0.1,0.6-0.1,0.9
							c-0.1,0.6-0.2,1.2-0.2,1.8c-0.1,1.1-0.2,2.3-0.2,3.5c0,0.4,0,0.8,0,1.2c-1,3.2-3.9,5.5-7.5,5.5H177.4c-3.3,0-6.2-2.1-7.3-5
							c0-0.5,0-1.1,0-1.6c0-1.2-0.1-2.3-0.2-3.5c-0.1-0.6-0.1-1.2-0.2-1.8c0-0.3-0.1-0.6-0.1-0.9c-0.2-1.2-0.5-2.5-0.8-3.7
							c-0.1-0.3-0.2-0.6-0.2-0.8c-0.2-0.6-0.4-1.2-0.6-1.8c-5.1-13.7-18.3-23.5-33.8-23.5c-18.8,0-34.2,14.3-35.9,32.6h-6.6
							c0,0-28.7,0-35.3,0S34-274,34-274c-3.2-19.5,8.9-35.6,8.9-35.6l40.1-1.1c7.1,0,57.8-22.7,95.9-32.6s95.9-8.3,95.9-8.3
							c23.6,5.7,60.1,40.8,60.1,40.8s113.6,3.2,130.1,6c16.5,2.8,20.9,8,20.9,8l-4.4,24.7c0.6,0,2.6,0.2,3.1,0.5
							C487.4-270.2,487.1-267.9,485.6-265.3z"/>
					</g>
				</g>
				<g id="XMLID_119_">
					<g id="XMLID_647_">
						<path class="st7" d="M484-285.8l-2.4,13.8l4.7,5.3c-0.2,0.5-0.4,1-0.7,1.5l-9,15.8h-8l-1.8,2.3h-16.3l-4.3-3
							c-0.8-19.2-16.6-34.5-36-34.5c-15.5,0-28.7,9.8-33.8,23.5c-0.2,0.6-0.4,1.2-0.6,1.8c-0.1,0.3-0.2,0.5-0.2,0.8
							c-0.3,1.2-0.6,2.4-0.8,3.7c-0.1,0.3-0.1,0.6-0.1,0.9c-0.1,0.6-0.2,1.2-0.2,1.8c-0.1,1.1-0.2,2.3-0.2,3.5c0,0.4,0,0.8,0,1.2
							c-1,3.2-3.9,5.5-7.5,5.5H177.4c-3.3,0-6.2-2.1-7.3-5c0-0.5,0-1.1,0-1.6c0-1.2-0.1-2.3-0.2-3.5c-0.1-0.6-0.1-1.2-0.2-1.8
							c0-0.3-0.1-0.6-0.1-0.9c-0.2-1.2-0.5-2.5-0.8-3.7c-0.1-0.3-0.2-0.6-0.2-0.8c-0.2-0.6-0.4-1.2-0.6-1.8
							c-5.1-13.7-18.3-23.5-33.8-23.5c-18.8,0-34.2,14.3-35.9,32.6h-6.6c0,0-28.7,0-35.3,0S34-274,34-274c-0.7-4.2-0.7-8.2-0.2-11.9
							L484-285.8z"/>
					</g>
				</g>
				<g id="XMLID_104_">
					<g id="XMLID_646_">
						<polygon class="st8" points="174.2,-285.2 203.1,-285.2 206.7,-262.5 184.5,-262.5 						"/>
					</g>
				</g>
				<g id="XMLID_74_">
					<g id="XMLID_96_">
						<g id="XMLID_645_">
							<circle class="st9" cx="412" cy="-249.1" r="30.5"/>
						</g>
					</g>
					<g id="XMLID_75_">
						<g id="XMLID_113_">
							<g id="XMLID_644_">
								<circle class="st5" cx="412" cy="-249.1" r="16.6"/>
							</g>
						</g>
						<g id="XMLID_95_">
							<g id="XMLID_643_">
								<circle class="st10" cx="412" cy="-249.1" r="10.6"/>
							</g>
						</g>
						<g id="XMLID_92_">
							<g id="XMLID_1107_">
								<path class="st10" d="M431-249.1c0-10.5-8.5-19-19-19s-19,8.5-19,19c0,10.5,8.5,19,19,19S431-238.6,431-249.1z M396.6-249.1
									c0-8.5,6.9-15.4,15.4-15.4c8.5,0,15.4,6.9,15.4,15.4c0,8.5-6.9,15.4-15.4,15.4C403.5-233.7,396.6-240.6,396.6-249.1z"/>
							</g>
						</g>
						<g id="XMLID_91_">
							<g id="XMLID_503_">
								<rect x="417.3" y="-250.1" class="st10" width="10.1" height="1.8"/>
							</g>
						</g>
						<g id="XMLID_90_">
							<g id="XMLID_502_">
								
									<rect x="412.1" y="-259.1" transform="matrix(0.4999 -0.8661 0.8661 0.4999 432.1855 232.2188)" class="st10" width="10.1" height="1.8"/>
							</g>
						</g>
						<g id="XMLID_80_">
							<g id="XMLID_501_">
								
									<rect x="405.9" y="-263.2" transform="matrix(0.8661 -0.4999 0.4999 0.8661 183.5346 168.8006)" class="st10" width="1.8" height="10.1"/>
							</g>
						</g>
						<g id="XMLID_79_">
							<g id="XMLID_500_">
								<rect x="396.6" y="-250.1" class="st10" width="10.1" height="1.8"/>
							</g>
						</g>
						<g id="XMLID_78_">
							<g id="XMLID_499_">
								
									<rect x="401.7" y="-241.1" transform="matrix(0.4999 -0.8661 0.8661 0.4999 411.4335 232.22)" class="st10" width="10.1" height="1.8"/>
							</g>
						</g>
						<g id="XMLID_77_">
							<g id="XMLID_498_">
								
									<rect x="416.3" y="-245.2" transform="matrix(0.866 -0.5 0.5 0.866 175.9732 176.4145)" class="st10" width="1.8" height="10.1"/>
							</g>
						</g>
						<g id="XMLID_76_">
							<g id="XMLID_642_">
								<circle class="st11" cx="412" cy="-249.1" r="5.4"/>
							</g>
						</g>
					</g>
				</g>
				<g id="XMLID_35_">
					<g id="XMLID_641_">
						<polygon class="st4" points="287,-346.8 282.2,-342.4 323.9,-307.7 331,-307.7 335,-310.7 329.4,-315.8 329.6,-311.9 
							328,-310.8 324.2,-310.8 286.8,-342.2 289.8,-345.3 						"/>
					</g>
				</g>
				<g id="XMLID_53_">
					<g id="XMLID_640_">
						<path class="st12" d="M329.6-311.9l-1.6,1.1h-3.8l-37.4-31.4l3-3.1c15.2,8.4,31.4,22.1,39.7,29.5L329.6-311.9z"/>
					</g>
				</g>
				<g id="XMLID_51_">
					<g id="XMLID_639_">
						<path class="st12" d="M179-343.2v5.9l-64.5,20.6h-12.4c0,0,0,0,0,0C122.1-324.2,153.4-336.6,179-343.2z"/>
					</g>
				</g>
				<g id="XMLID_19_">
					<g id="XMLID_638_">
						<polygon class="st13" points="485.7,-295.3 475.8,-295.3 473.2,-276.5 482.4,-276.5 						"/>
					</g>
				</g>
				<g id="XMLID_21_">
					<g id="XMLID_637_">
						<path class="st10" d="M51-245.5h47.1v-6.4H51c-1.8,0-3.2,1.4-3.2,3.2v0C47.8-247,49.2-245.5,51-245.5z"/>
					</g>
				</g>
				<g id="XMLID_22_">
					<g id="XMLID_636_">
						<path class="st13" d="M34.1-287.9h9.3l-3.2,22.1L34-274C34-274,32.8-279.9,34.1-287.9z"/>
					</g>
				</g>
				<g id="XMLID_24_">
					<g id="XMLID_635_">
						<polygon class="st4" points="179,-343.2 179,-337.4 181.7,-338 181.7,-343.9 						"/>
					</g>
				</g>
				<g id="XMLID_36_">
					<g id="XMLID_634_">
						<polygon class="st4" points="319.2,-307.7 277.8,-340.3 290.6,-307.7 						"/>
					</g>
				</g>
				<g id="XMLID_37_">
					<g id="XMLID_633_">
						<path class="st4" d="M290.6-307.7h-89.2c0,0-10.4-23.7-7.8-28.3c2.6-4.6,35.3-8.6,57.5-8.6c22.2,0,26.6,4.3,26.6,4.3
							L290.6-307.7z"/>
					</g>
				</g>
				<g id="XMLID_38_">
					<g id="XMLID_632_">
						<path class="st14" d="M179.4-333l-40.2,11.7c-1.5,0.4-2.6,1.6-3,3.1l0,0c-0.4,1.5,0.1,3.1,1.2,4.2l0.3,0.3
							c0.8,0.8,1.9,1.2,3,1.2h44.7c1.4,0,2.5-1.4,2-2.8l-5.4-16.4C181.7-332.8,180.5-333.4,179.4-333z"/>
					</g>
				</g>
				<g id="XMLID_39_">
					<g id="XMLID_631_">
						<polygon class="st12" points="310.2,-311.5 308.6,-309.5 293.1,-309.5 283.5,-332.6 						"/>
					</g>
				</g>
				<g id="XMLID_50_">
					<g id="XMLID_52_">
						<g id="XMLID_1065_">
							<path class="st4" d="M185.5-311.6h-44.7c-1.4,0-2.6-0.5-3.6-1.5l-0.3-0.3c-1.4-1.3-1.9-3.3-1.5-5.1c0.5-1.8,1.9-3.2,3.6-3.7
								l40.2-11.7c1.6-0.5,3.2,0.4,3.7,2l5.4,16.4c0.3,0.9,0.2,1.9-0.4,2.7C187.3-312,186.5-311.6,185.5-311.6z M180-332.2
								c-0.1,0-0.2,0-0.3,0l-40.2,11.7c-1.2,0.3-2.1,1.3-2.4,2.4c-0.3,1.2,0.1,2.5,0.9,3.3l0.3,0.3c0.6,0.6,1.5,0.9,2.4,0.9h44.7
								c0.4,0,0.7-0.2,1-0.5c0.2-0.3,0.3-0.7,0.2-1.1l-5.4-16.4C181-331.9,180.5-332.2,180-332.2z"/>
						</g>
					</g>
				</g>
				<g id="XMLID_34_">
					<g id="XMLID_630_">
						<path class="st12" d="M205.4-307.7c0,0-9.9-23.2-7.8-26.4c2.1-3.2,24-6.2,46.5-6.2s30.9,2.9,30.9,2.9l9.8,24.8l-2.6,4.9H205.4
							z"/>
					</g>
				</g>
				<g id="XMLID_5_">
					<g id="XMLID_629_">
						<polygon class="st4" points="181.7,-338 114.5,-316.7 102.1,-316.7 107.5,-318.8 114.4,-318.8 181.7,-339.7 						"/>
					</g>
				</g>
				<g id="XMLID_72_">
					<g id="XMLID_15_">
						<g id="XMLID_628_">
							<circle class="st9" cx="134.3" cy="-249.1" r="30.5"/>
						</g>
					</g>
					<g id="XMLID_30_">
						<g id="XMLID_115_">
							<g id="XMLID_627_">
								<circle class="st5" cx="134.3" cy="-249.1" r="17.2"/>
							</g>
						</g>
						<g id="XMLID_29_">
							<g id="XMLID_626_">
								<circle class="st10" cx="134.3" cy="-249.1" r="10.6"/>
							</g>
						</g>
						<g id="XMLID_49_">
							<g id="XMLID_1050_">
								<path class="st10" d="M153.3-249.1c0-10.5-8.5-19-19-19c-10.5,0-19,8.5-19,19c0,10.5,8.5,19,19,19
									C144.8-230.1,153.3-238.6,153.3-249.1z M118.8-249.1c0-8.5,6.9-15.4,15.4-15.4s15.4,6.9,15.4,15.4c0,8.5-6.9,15.4-15.4,15.4
									S118.8-240.6,118.8-249.1z"/>
							</g>
						</g>
						<g id="XMLID_28_">
							<g id="XMLID_497_">
								<rect x="139.6" y="-250.1" class="st10" width="10.1" height="1.8"/>
							</g>
						</g>
						<g id="XMLID_46_">
							<g id="XMLID_496_">
								
									<rect x="134.4" y="-259.1" transform="matrix(0.4999 -0.8661 0.8661 0.4999 293.3046 -8.3212)" class="st10" width="10.1" height="1.8"/>
							</g>
						</g>
						<g id="XMLID_58_">
							<g id="XMLID_495_">
								
									<rect x="128.2" y="-263.2" transform="matrix(0.866 -0.5 0.5 0.866 146.3511 29.9527)" class="st10" width="1.8" height="10.1"/>
							</g>
						</g>
						<g id="XMLID_59_">
							<g id="XMLID_494_">
								<rect x="118.8" y="-250.1" class="st10" width="10.1" height="1.8"/>
							</g>
						</g>
						<g id="XMLID_60_">
							<g id="XMLID_493_">
								
									<rect x="124" y="-241.1" transform="matrix(0.4999 -0.8661 0.8661 0.4999 272.5501 -8.3199)" class="st10" width="10.1" height="1.8"/>
							</g>
						</g>
						<g id="XMLID_61_">
							<g id="XMLID_492_">
								
									<rect x="138.5" y="-245.2" transform="matrix(0.866 -0.5 0.5 0.866 138.7664 37.5481)" class="st10" width="1.8" height="10.1"/>
							</g>
						</g>
						<g id="XMLID_33_">
							<g id="XMLID_625_">
								<circle class="st11" cx="134.3" cy="-249.1" r="5.4"/>
							</g>
						</g>
					</g>
				</g>
				<g id="XMLID_99_">
					<g id="XMLID_491_">
						<polygon class="st15" points="327.7,-248.7 209.4,-248.7 201.6,-307.6 202.5,-307.7 210.2,-249.6 327.7,-249.6 						"/>
					</g>
				</g>
				<g id="XMLID_101_">
					<g id="XMLID_490_">
						<polygon class="st15" points="326.3,-241.7 325.4,-242 327.9,-251.1 329.1,-288.9 326.7,-307.6 327.6,-307.7 330,-288.9 
							328.8,-250.9 						"/>
					</g>
				</g>
				<g id="XMLID_100_">
					<g id="XMLID_624_">
						<polygon class="st16" points="174.2,-285.2 184.5,-262.5 206.7,-262.5 185.4,-264.6 						"/>
					</g>
				</g>
				<g id="XMLID_102_">
					<g id="XMLID_623_">
						<path class="st15" d="M208.6-262.5l-4.2-26.5l125-1l136.3,4.2l-256,0.6C209.7-285.2,214.1-267.1,208.6-262.5z"/>
					</g>
				</g>
				<g id="XMLID_118_">
					<g id="XMLID_622_">
						<polygon class="st15" points="452.9,-264.6 456.6,-262.3 478.5,-262.3 478.5,-265.7 						"/>
					</g>
				</g>
				<g id="XMLID_105_">
					<g id="XMLID_106_">
						<g id="XMLID_117_">
							<g id="XMLID_621_">
								<path class="st17" d="M376.3-261.1c-0.2,0.6-0.4,1.2-0.6,1.8H168.5c-0.2-0.6-0.4-1.2-0.6-1.8H376.3z"/>
							</g>
						</g>
					</g>
					<g id="XMLID_108_">
						<g id="XMLID_114_">
							<g id="XMLID_620_">
								<polygon class="st17" points="374.4,-253.4 169.7,-253.4 170,-251.6 374.2,-251.6 								"/>
							</g>
						</g>
					</g>
					<g id="XMLID_107_">
						<g id="XMLID_116_">
							<g id="XMLID_619_">
								<path class="st17" d="M375.4-258.3c-0.3,1.2-0.6,2.4-0.8,3.7H169.6c-0.2-1.2-0.5-2.5-0.8-3.7H375.4z"/>
							</g>
						</g>
					</g>
				</g>
				<g id="XMLID_111_">
					<g id="XMLID_489_">
						
							<rect x="35.8" y="-299.2" transform="matrix(0.3418 -0.9398 0.9398 0.3418 311.871 -152.0977)" class="st15" width="23" height="0.9"/>
					</g>
				</g>
				<g id="XMLID_112_">
					<g id="XMLID_103_">
						<g id="XMLID_618_">
							<path class="st15" d="M219.8-299.2H209c-1.2,0-2.2-1-2.2-2.2l0,0c0-1.2,1-2.2,2.2-2.2h10.8c1.2,0,2.2,1,2.2,2.2l0,0
								C222-300.2,221-299.2,219.8-299.2z"/>
						</g>
					</g>
					<g id="XMLID_110_">
						<g id="XMLID_617_">
							<circle class="st15" cx="208.5" cy="-297.2" r="1.1"/>
						</g>
					</g>
				</g>
				<g id="XMLID_18_">
					<g id="XMLID_12_">
						<g id="XMLID_616_">
							<path class="st10" d="M484.1-263.8h-28.8c-2.3,0-4.1-1.8-4.1-4.1l0,0c0-2.3,1.8-4.1,4.1-4.1h28.8c2.3,0,4.1,1.8,4.1,4.1l0,0
								C488.2-265.6,486.4-263.8,484.1-263.8z"/>
						</g>
					</g>
					<g id="XMLID_16_">
						<g id="XMLID_615_">
							<path class="st10" d="M468.7-249.3l11.8-20.5c1.1-2,3.6-2.7,5.6-1.6l0,0c2,1.1,2.7,3.6,1.6,5.6l-9.7,16.6L468.7-249.3z"/>
						</g>
					</g>
				</g>
				<g id="XMLID_121_">
					<g id="XMLID_614_">
						<rect x="341.9" y="-304.6" class="st7" width="23.9" height="2.9"/>
					</g>
				</g>
				<g id="XMLID_123_">
					<g id="XMLID_613_">
						<rect x="367.6" y="-304.6" class="st18" width="5.5" height="2.9"/>
					</g>
				</g>
			</g>
		</g>
		<g id="XMLID_170_" class="st0">
			<g id="XMLID_374_" class="st2">
				<g id="XMLID_612_">
					<ellipse class="st3" cx="260.9" cy="-385.7" rx="198.1" ry="12.1"/>
				</g>
			</g>
			<g id="XMLID_174_" class="st2">
				<g id="XMLID_373_">
					<g id="XMLID_611_">
						<rect x="72.7" y="-410.6" class="st19" width="32" height="8.4"/>
					</g>
				</g>
				<g id="XMLID_372_">
					<g id="XMLID_610_">
						<path class="st10" d="M99.9-450.8h-6.3c-3.1,0-5.6,2.5-5.6,5.6l0,0h11.9V-450.8z"/>
					</g>
				</g>
				<g id="XMLID_371_">
					<g id="XMLID_609_">
						<path class="st20" d="M431.4-405.2h-22.7c0.7-2.6,1.1-5.3,1.1-8.1c0-17.4-14.1-31.5-31.5-31.5c-17.4,0-31.5,14.1-31.5,31.5
							c0,2.8,0.4,5.5,1.1,8.1H185.8c0.7-2.6,1.1-5.3,1.1-8.1c0-17.4-14.1-31.5-31.5-31.5c-17.4,0-31.5,14.1-31.5,31.5
							c0,2.8,0.4,5.5,1.1,8.1H75.1c0,0,14.1-44.4,50.3-77.3c0.5-0.4,0.9-0.9,1.4-1.3c9.4-8.3,20.2-15.8,32.6-21.6
							c0.3-0.1,0.6-0.3,0.9-0.4c0.3-0.1,0.6-0.3,0.9-0.4c47.5-21.3,106.3-13.4,131.4-8.4c7.7,1.5,14.3,6.4,18,13.3l13.5,24.6
							C447.8-479.1,431.4-405.2,431.4-405.2z"/>
					</g>
				</g>
				<g id="XMLID_367_">
					<g id="XMLID_370_">
						<g id="XMLID_608_">
							<path class="st21" d="M89.6-436.7h44.7c-6.4,5.8-10.4,14.1-10.4,23.4c0,2.8,0.4,5.5,1.1,8.1H75.1
								C75.1-405.2,79.5-418.9,89.6-436.7z"/>
						</g>
					</g>
					<g id="XMLID_369_">
						<g id="XMLID_607_">
							<path class="st22" d="M176.4-436.7h180.8c-6.4,5.8-10.4,14.1-10.4,23.4c0,2.8,0.4,5.5,1.1,8.1H185.8c0.7-2.6,1.1-5.3,1.1-8.1
								C186.8-422.6,182.8-430.9,176.4-436.7z"/>
						</g>
					</g>
					<g id="XMLID_368_">
						<g id="XMLID_606_">
							<path class="st21" d="M431.4-405.2h-22.7c0.7-2.6,1.1-5.3,1.1-8.1c0-9.3-4-17.6-10.4-23.4H427
								C434.8-420.3,431.4-405.2,431.4-405.2z"/>
						</g>
					</g>
				</g>
				<g id="XMLID_366_">
					<g id="XMLID_605_">
						<rect x="196.5" y="-411.4" class="st23" width="133.5" height="6.3"/>
					</g>
				</g>
				<g id="XMLID_365_">
					<g id="XMLID_488_">
						<path class="st21" d="M379.7-455.1c-0.2-0.1-19.2-10.5-55.4-10.5c-36.6,0-90.2-0.6-90.7-0.6c-59,0-80.3,6.8-80.5,6.9l-0.6-1.7
							c0.9-0.3,21.7-7,81.1-7c0.5,0,54.1,0.6,90.7,0.6c36.8,0,56.2,10.6,56.3,10.7L379.7-455.1z"/>
					</g>
				</g>
				<g id="XMLID_364_">
					<g id="XMLID_604_">
						<path class="st24" d="M428.6-405.2h-90.8c0,0,1.9-42.8,40.5-42.8C416.9-448,428.6-405.2,428.6-405.2z"/>
					</g>
				</g>
				<g id="XMLID_363_">
					<g id="XMLID_603_">
						<path class="st24" d="M85.7-405.2h107.9c0,0-1.5-45.7-36.5-45.7S85.7-405.2,85.7-405.2z"/>
					</g>
				</g>
				<g id="XMLID_362_">
					<g id="XMLID_602_">
						<path class="st12" d="M237.9-500.1v23c0,3.1,2.5,5.6,5.6,5.6h48.4l-4.1-31.2l-43.9-3C240.7-505.9,237.9-503.4,237.9-500.1z"/>
					</g>
				</g>
				<g id="XMLID_326_">
					<g id="XMLID_327_">
						<g id="XMLID_360_">
							<g id="XMLID_361_">
								<g id="XMLID_601_">
									<circle class="st25" cx="378.3" cy="-413.3" r="31.5"/>
								</g>
							</g>
						</g>
						<g id="XMLID_328_">
							<g id="XMLID_358_">
								<g id="XMLID_359_">
									<g id="XMLID_600_">
										<circle class="st26" cx="378.3" cy="-413.3" r="27.6"/>
									</g>
								</g>
							</g>
							<g id="XMLID_356_">
								<g id="XMLID_357_">
									<g id="XMLID_599_">
										<circle class="st9" cx="378.3" cy="-413.3" r="17.5"/>
									</g>
								</g>
							</g>
							<g id="XMLID_354_">
								<g id="XMLID_355_">
									<g id="XMLID_598_">
										<circle class="st10" cx="378.3" cy="-413.3" r="11.4"/>
									</g>
								</g>
							</g>
							<g id="XMLID_329_">
								<g id="XMLID_352_">
									<g id="XMLID_353_">
										<g id="XMLID_597_">
											<rect x="376.5" y="-430.8" class="st10" width="3.7" height="17.5"/>
										</g>
									</g>
								</g>
								<g id="XMLID_350_">
									<g id="XMLID_351_">
										<g id="XMLID_596_">
											
												<rect x="372.1" y="-429.6" transform="matrix(0.866 -0.5 0.5 0.866 260.5301 130.5784)" class="st10" width="3.7" height="17.5"/>
										</g>
									</g>
								</g>
								<g id="XMLID_348_">
									<g id="XMLID_349_">
										<g id="XMLID_595_">
											
												<rect x="368.9" y="-426.4" transform="matrix(0.5 -0.866 0.866 0.5 547.0518 112.2282)" class="st10" width="3.7" height="17.5"/>
										</g>
									</g>
								</g>
								<g id="XMLID_346_">
									<g id="XMLID_347_">
										<g id="XMLID_594_">
											<rect x="360.8" y="-415.1" class="st10" width="17.5" height="3.7"/>
										</g>
									</g>
								</g>
								<g id="XMLID_344_">
									<g id="XMLID_345_">
										<g id="XMLID_593_">
											
												<rect x="362" y="-410.7" transform="matrix(0.8661 -0.4999 0.4999 0.8661 254.0698 130.5652)" class="st10" width="17.5" height="3.7"/>
										</g>
									</g>
								</g>
								<g id="XMLID_342_">
									<g id="XMLID_343_">
										<g id="XMLID_592_">
											
												<rect x="365.2" y="-407.5" transform="matrix(0.5 -0.866 0.866 0.5 538.2959 120.9731)" class="st10" width="17.5" height="3.7"/>
										</g>
									</g>
								</g>
								<g id="XMLID_340_">
									<g id="XMLID_341_">
										<g id="XMLID_591_">
											<rect x="376.5" y="-413.3" class="st10" width="3.7" height="17.5"/>
										</g>
									</g>
								</g>
								<g id="XMLID_338_">
									<g id="XMLID_339_">
										<g id="XMLID_590_">
											
												<rect x="380.8" y="-414.4" transform="matrix(0.866 -0.5 0.5 0.866 254.1271 136.9758)" class="st10" width="3.7" height="17.5"/>
										</g>
									</g>
								</g>
								<g id="XMLID_336_">
									<g id="XMLID_337_">
										<g id="XMLID_589_">
											
												<rect x="384" y="-417.6" transform="matrix(0.5 -0.866 0.866 0.5 547.0327 129.7141)" class="st10" width="3.7" height="17.5"/>
										</g>
									</g>
								</g>
								<g id="XMLID_334_">
									<g id="XMLID_335_">
										<g id="XMLID_588_">
											<rect x="378.3" y="-415.1" class="st10" width="17.5" height="3.7"/>
										</g>
									</g>
								</g>
								<g id="XMLID_332_">
									<g id="XMLID_333_">
										<g id="XMLID_587_">
											
												<rect x="377.1" y="-419.5" transform="matrix(0.8661 -0.4999 0.4999 0.8661 260.476 136.9645)" class="st10" width="17.5" height="3.7"/>
										</g>
									</g>
								</g>
								<g id="XMLID_330_">
									<g id="XMLID_331_">
										<g id="XMLID_586_">
											
												<rect x="373.9" y="-422.7" transform="matrix(0.5 -0.866 0.866 0.5 555.7881 120.9696)" class="st10" width="17.5" height="3.7"/>
										</g>
									</g>
								</g>
							</g>
						</g>
					</g>
				</g>
				<g id="XMLID_325_">
					<g id="XMLID_585_">
						<path class="st12" d="M287.9-502.7L287.9-502.7c6.2,0,12,3.2,15.2,8.5l9.3,15.2c2,3.3-0.4,7.5-4.2,7.5h-16.2L287.9-502.7z"/>
					</g>
				</g>
				<g id="XMLID_324_">
					<g id="XMLID_584_">
						<path class="st12" d="M229.2-501v24.8c0,2.6-2.1,4.7-4.7,4.7h-52c-4.7,0-8.5-3.8-8.5-8.5l0,0c0-2.5,1.1-4.8,2.9-6.5
							c6.6-5.7,24.7-18.1,57.5-19.2C227-505.7,229.2-503.6,229.2-501z"/>
					</g>
				</g>
				<g id="XMLID_323_">
					<g id="XMLID_583_">
						<path class="st27" d="M332.5-402.9c-2.6-1.5-4.2-4.3-4-7.4c1-12.8,7.8-45.7,53.3-45.7c53,0,50.2,44.6,49.7,50.2
							c0,0.4-0.1,0.7-0.3,1l0,0c-1,1.8-3.5,2-4.7,0.4l-0.5-0.7c-0.1-0.1-0.1-0.2-0.2-0.2c-1.4-2.3-21-37.2-45.7-37.2
							c-23.1,0-32.8,18.2-34.5,33.1c-0.3,2.7-2.1,5-4.5,6.1l-1.5,0.7C337.3-401.5,334.6-401.7,332.5-402.9L332.5-402.9z"/>
					</g>
				</g>
				<g id="XMLID_322_">
					<g id="XMLID_487_">
						<rect x="323.3" y="-476.8" class="st21" width="1.8" height="65.4"/>
					</g>
				</g>
				<g id="XMLID_321_">
					<g id="XMLID_486_">
						<rect x="232.9" y="-509.3" class="st21" width="1.8" height="97.8"/>
					</g>
				</g>
				<g id="XMLID_320_">
					<g id="XMLID_485_">
						<path class="st21" d="M81.8-419.4l-0.7-0.6c0.6-0.7,65.2-73.5,103-86.8c37.9-13.4,109.4-6.2,118.5,2.9
							c9,9,21.9,29.5,22.1,29.7l-0.8,0.5c-0.1-0.2-13-20.7-21.9-29.6c-9-9-79.8-16-117.5-2.7C146.8-492.7,82.4-420.2,81.8-419.4z"/>
					</g>
				</g>
				<g id="XMLID_319_">
					<g id="XMLID_582_">
						<path class="st19" d="M93.6-412.6H67.2c-2.3,0-4.1-1.8-4.1-4.1l0,0c0-2.3,1.8-4.1,4.1-4.1h26.5V-412.6z"/>
					</g>
				</g>
				<g id="XMLID_318_">
					<g id="XMLID_581_">
						<path class="st10" d="M76.5-409.1L76.5-409.1c-4.3,0-7.7-3.5-7.7-7.7v-13.7l0,0c4.3,0,7.7,3.5,7.7,7.7V-409.1z"/>
					</g>
				</g>
				<g id="XMLID_317_">
					<g id="XMLID_482_">
						<path class="st28" d="M293-470.6h-49.4c-3.6,0-6.5-2.9-6.5-6.5v-23c0-1.8,0.8-3.5,2.1-4.8c1.3-1.2,3.1-1.9,4.9-1.7l44.7,3.1
							L293-470.6z M243.5-504.8c-1.2,0-2.3,0.4-3.2,1.3c-1,0.9-1.5,2.1-1.5,3.4v23c0,2.6,2.1,4.7,4.7,4.7h47.3l-3.8-29.4l-43.2-3
							C243.7-504.8,243.6-504.8,243.5-504.8z"/>
					</g>
				</g>
				<g id="XMLID_316_">
					<g id="XMLID_479_">
						<path class="st28" d="M308.1-470.6h-17l-4.3-33h1c6.5,0,12.6,3.4,16,9l9.3,15.2c1.1,1.8,1.2,4,0.1,5.9
							C312.1-471.7,310.2-470.6,308.1-470.6z M292.7-472.4h15.4c1.5,0,2.8-0.8,3.5-2.1c0.7-1.3,0.7-2.8-0.1-4.1l-9.3-15.2
							c-2.9-4.7-7.9-7.7-13.4-8.1L292.7-472.4z"/>
					</g>
				</g>
				<g id="XMLID_315_">
					<g id="XMLID_476_">
						<path class="st28" d="M224.5-470.6h-52c-5.2,0-9.5-4.2-9.5-9.5c0-2.8,1.2-5.4,3.3-7.1c6.3-5.5,24.7-18.3,58.1-19.4
							c1.5-0.1,2.9,0.5,4,1.6c1.1,1.1,1.7,2.5,1.7,4v24.8C230.1-473.1,227.6-470.6,224.5-470.6z M224.5-504.7c0,0-0.1,0-0.1,0
							c-32.8,1.1-50.7,13.6-56.9,19c-1.7,1.4-2.6,3.5-2.6,5.8c0,4.2,3.4,7.6,7.6,7.6h52c2.1,0,3.8-1.7,3.8-3.8V-501
							c0-1-0.4-2-1.2-2.7C226.4-504.4,225.5-504.7,224.5-504.7z"/>
					</g>
				</g>
				<g id="XMLID_314_">
					<g id="XMLID_475_">
						<path class="st21" d="M119.3-447.4l-1.4-1.2c27.8-33.4,59.8-55.1,87.7-59.7c25.3-4.2,72.2-0.9,85.2,1.7
							c13.7,2.6,33.3,35.5,34.2,36.9l-1.6,0.9c-0.2-0.3-20.1-33.5-32.9-36c-12.9-2.5-59.5-5.8-84.6-1.6
							C178.5-502,146.9-480.4,119.3-447.4z"/>
					</g>
				</g>
				<g id="XMLID_313_">
					<g id="XMLID_580_">
						<rect x="237.9" y="-462" class="st26" width="12.8" height="4.1"/>
					</g>
				</g>
				<g id="XMLID_312_">
					<g id="XMLID_579_">
						<path class="st19" d="M442.7-409.1h-12.5c-2.3,0-4.1-1.9-4.1-4.1l0,0c0-2.3,1.9-4.1,4.1-4.1h12.5V-409.1z"/>
					</g>
				</g>
				<g id="XMLID_311_">
					<g id="XMLID_578_">
						<rect x="439.9" y="-425.3" class="st10" width="7.7" height="20.1"/>
					</g>
				</g>
				<g id="XMLID_310_">
					<g id="XMLID_577_">
						<path class="st13" d="M430.8-417.3h-4.2c-12.4-10.5-9.2-26.9-9.2-26.9c1.6,0.7,3.1,1.6,4.3,2.6
							C431.2-433.7,430.8-417.3,430.8-417.3z"/>
					</g>
				</g>
				<g id="XMLID_309_">
					<g id="XMLID_576_">
						<path class="st27" d="M132.3-478.8l-2.9,3.3c-2.9,3.3-8.1,3.1-10.8-0.3l0,0l7.6-7.3C126.3-483.2,130.7-478.7,132.3-478.8z"/>
					</g>
				</g>
				<g id="XMLID_308_">
					<g id="XMLID_575_">
						<path class="st27" d="M195.5-404.2c0.6-0.7,0.9-1.5,0.9-2.3c0.2-8.5-0.8-54.7-41.6-54.7c-44.9,0-75.5,56-75.5,56
							s30,2,38.1-9.8c8.1-11.9,17.5-29.3,38.7-29.3c20.7,0,32.2,19.6,32.8,37.7c0,0.9,0.4,1.8,1,2.5l0.1,0.1
							C191.5-402.4,194.1-402.4,195.5-404.2L195.5-404.2z"/>
					</g>
				</g>
				<g id="XMLID_307_">
					<g id="XMLID_574_">
						<path class="st29" d="M106.8-447.4l-3.7,21.5c0,0,13.6-14.6,14-15.1s0-6.5,0-6.5H106.8z"/>
					</g>
				</g>
				<g id="XMLID_306_">
					<g id="XMLID_573_">
						<path class="st30" d="M106.8-447.4c0,0-10.2,9-3.7,21.5L106.8-447.4z"/>
					</g>
				</g>
				<g id="XMLID_305_">
					<g id="XMLID_572_">
						<rect x="428.6" y="-408" class="st5" width="11.2" height="2.8"/>
					</g>
				</g>
				<g id="XMLID_269_">
					<g id="XMLID_270_">
						<g id="XMLID_303_">
							<g id="XMLID_304_">
								<g id="XMLID_571_">
									<circle class="st25" cx="155.3" cy="-413.3" r="31.5"/>
								</g>
							</g>
						</g>
						<g id="XMLID_271_">
							<g id="XMLID_301_">
								<g id="XMLID_302_">
									<g id="XMLID_570_">
										<circle class="st26" cx="155.3" cy="-413.3" r="27.6"/>
									</g>
								</g>
							</g>
							<g id="XMLID_299_">
								<g id="XMLID_300_">
									<g id="XMLID_569_">
										<circle class="st9" cx="155.3" cy="-413.3" r="17.5"/>
									</g>
								</g>
							</g>
							<g id="XMLID_297_">
								<g id="XMLID_298_">
									<g id="XMLID_568_">
										<circle class="st10" cx="155.3" cy="-413.3" r="11.4"/>
									</g>
								</g>
							</g>
							<g id="XMLID_272_">
								<g id="XMLID_295_">
									<g id="XMLID_296_">
										<g id="XMLID_567_">
											<rect x="153.5" y="-430.8" class="st10" width="3.7" height="17.5"/>
										</g>
									</g>
								</g>
								<g id="XMLID_293_">
									<g id="XMLID_294_">
										<g id="XMLID_566_">
											
												<rect x="149.1" y="-429.6" transform="matrix(0.866 -0.5 0.5 0.866 230.6591 19.1033)" class="st10" width="3.7" height="17.5"/>
										</g>
									</g>
								</g>
								<g id="XMLID_291_">
									<g id="XMLID_292_">
										<g id="XMLID_565_">
											
												<rect x="145.9" y="-426.4" transform="matrix(0.5 -0.866 0.866 0.5 435.5811 -80.8454)" class="st10" width="3.7" height="17.5"/>
										</g>
									</g>
								</g>
								<g id="XMLID_289_">
									<g id="XMLID_290_">
										<g id="XMLID_564_">
											<rect x="137.9" y="-415.1" class="st10" width="17.5" height="3.7"/>
										</g>
									</g>
								</g>
								<g id="XMLID_287_">
									<g id="XMLID_288_">
										<g id="XMLID_563_">
											
												<rect x="139" y="-410.7" transform="matrix(0.8661 -0.4999 0.4999 0.8661 224.2137 19.1118)" class="st10" width="17.5" height="3.7"/>
										</g>
									</g>
								</g>
								<g id="XMLID_285_">
									<g id="XMLID_286_">
										<g id="XMLID_562_">
											
												<rect x="142.2" y="-407.5" transform="matrix(0.5 -0.866 0.866 0.5 426.8306 -72.0968)" class="st10" width="17.5" height="3.7"/>
										</g>
									</g>
								</g>
								<g id="XMLID_283_">
									<g id="XMLID_284_">
										<g id="XMLID_561_">
											<rect x="153.5" y="-413.3" class="st10" width="3.7" height="17.5"/>
										</g>
									</g>
								</g>
								<g id="XMLID_281_">
									<g id="XMLID_282_">
										<g id="XMLID_560_">
											
												<rect x="157.9" y="-414.4" transform="matrix(0.866 -0.5 0.5 0.866 224.257 25.5024)" class="st10" width="3.7" height="17.5"/>
										</g>
									</g>
								</g>
								<g id="XMLID_279_">
									<g id="XMLID_280_">
										<g id="XMLID_559_">
											
												<rect x="161.1" y="-417.6" transform="matrix(0.5 -0.866 0.866 0.5 435.5686 -63.3556)" class="st10" width="3.7" height="17.5"/>
										</g>
									</g>
								</g>
								<g id="XMLID_277_">
									<g id="XMLID_278_">
										<g id="XMLID_558_">
											<rect x="155.3" y="-415.1" class="st10" width="17.5" height="3.7"/>
										</g>
									</g>
								</g>
								<g id="XMLID_275_">
									<g id="XMLID_276_">
										<g id="XMLID_557_">
											
												<rect x="154.2" y="-419.5" transform="matrix(0.8661 -0.4999 0.4999 0.8661 230.616 25.5083)" class="st10" width="17.5" height="3.7"/>
										</g>
									</g>
								</g>
								<g id="XMLID_273_">
									<g id="XMLID_274_">
										<g id="XMLID_556_">
											
												<rect x="151" y="-422.7" transform="matrix(0.5 -0.866 0.866 0.5 444.3134 -72.099)" class="st10" width="17.5" height="3.7"/>
										</g>
									</g>
								</g>
							</g>
						</g>
					</g>
				</g>
				<g id="XMLID_265_">
					<g id="XMLID_268_">
						<g id="XMLID_555_">
							<path class="st12" d="M160.3-505.8v8.9l-20.1,16.5c-1.5,1.3-3.4,1.9-5.4,1.9l0,0c-2.1,0-4.2-0.8-5.7-2.2l-2.8-2.6
								C136-492,147.3-499.8,160.3-505.8z"/>
						</g>
					</g>
					<g id="XMLID_266_">
						<g id="XMLID_267_">
							<g id="XMLID_554_">
								<path class="st28" d="M161.3-506.2v9.8l-20.4,16.8c-1.7,1.4-3.8,2.2-6,2.2c-2.4,0-4.6-0.9-6.3-2.5l-3-2.5
									c0.5-0.4,0.9-0.9,1.4-1.3l2.9,2.4c1.4,1.3,3.2,2,5.1,2c1.8,0,3.5-0.6,4.8-1.7l19.7-16.3v-8c0.3-0.1,0.6-0.3,0.9-0.4
									C160.6-506,161-506.1,161.3-506.2z"/>
							</g>
						</g>
					</g>
				</g>
				<g id="XMLID_262_">
					<g id="XMLID_264_">
						<g id="XMLID_553_">
							<rect x="321.3" y="-466.5" class="st27" width="3" height="5.6"/>
						</g>
					</g>
					<g id="XMLID_263_">
						<g id="XMLID_552_">
							<rect x="321.3" y="-420.8" class="st27" width="3" height="5.6"/>
						</g>
					</g>
				</g>
				<g id="XMLID_261_">
					<g id="XMLID_474_">
						
							<rect x="124.5" y="-478.5" transform="matrix(0.7206 -0.6933 0.6933 0.7206 360.3102 -44.481)" class="st21" width="0.9" height="18.3"/>
					</g>
				</g>
				<g id="XMLID_212_">
					<g id="XMLID_551_">
						<path class="st10" d="M107.8-398.9L107.8-398.9c1.7,0,3.1-1.4,3.1-3.1v-3.1h-6.3v3.1C104.7-400.3,106.1-398.9,107.8-398.9z"/>
					</g>
				</g>
				<g id="XMLID_178_">
					<g id="XMLID_550_">
						<path class="st10" d="M428.5-398.9L428.5-398.9c1.7,0,3.1-1.4,3.1-3.1v-3.1h-6.3v3.1C425.4-400.3,426.8-398.9,428.5-398.9z"/>
					</g>
				</g>
				<g id="XMLID_177_">
					<g id="XMLID_549_">
						<path class="st29" d="M426.5-417.3c-12.4-10.5-9.2-26.9-9.2-26.9c1.6,0.7,3.1,1.6,4.3,2.6C421.5-435.6,422-424.1,426.5-417.3z
							"/>
					</g>
				</g>
				<g id="XMLID_176_">
					<g id="XMLID_548_">
						<rect x="250.7" y="-461.2" class="st21" width="5.9" height="2.6"/>
					</g>
				</g>
				<g id="XMLID_175_">
					<g id="XMLID_547_">
						<polygon class="st31" points="91.5,-445.2 83.2,-430.4 85.5,-429.2 94.6,-445.2 						"/>
					</g>
				</g>
			</g>
		</g>
		<g id="XMLID_453_">
			<g id="XMLID_454_" class="st0">
				<g id="XMLID_546_" class="st2">
					<ellipse class="st3" cx="262.8" cy="137.2" rx="238.7" ry="14.4"/>
				</g>
			</g>
			<g id="XMLID_452_">
				<g id="XMLID_391_">
					<g id="XMLID_545_">
						<path class="st32" d="M318.9,40.8L277.8,8l2.5-3.2c0,0-65.2-7.8-105.7,4.6s-67.8,39.7-67.8,39.7l178.8,1.5v-2.1h17L318.9,40.8
							z"/>
					</g>
				</g>
				<g id="XMLID_405_">
					<g id="XMLID_544_">
						<path class="st12" d="M207.8,17.7c0,0-16.4-3.9-44.9,9.9c-28.5,13.8-34.4,21.8-34.4,21.8l84.2,2.8L207.8,17.7z"/>
					</g>
				</g>
				<g id="XMLID_393_">
					<g id="XMLID_543_">
						<path class="st33" d="M131.1,49.1c0,0,36.4-31.4,76.7-31.4l63.7-1.7l2.3-3l-66,1.2c0,0-41.7-0.2-82.1,35L131.1,49.1z"/>
					</g>
				</g>
				<g id="XMLID_395_">
					<g id="XMLID_542_">
						<path class="st12" d="M148.5,20l4.7,10.2c0,0-21.2,12.8-27.4,19l-19-0.2C106.8,49.1,131.3,27.6,148.5,20z"/>
					</g>
				</g>
				<g id="XMLID_401_">
					<g id="XMLID_541_">
						<polygon class="st10" points="261.6,18.9 267.8,50.6 269.5,50.6 263.2,18.9 						"/>
					</g>
				</g>
				<g id="XMLID_403_">
					<g id="XMLID_540_">
						<polygon class="st12" points="280.4,10.1 318.9,40.8 302.6,48.4 289.3,48.4 273.3,19.1 						"/>
					</g>
				</g>
				<g id="XMLID_404_">
					<g id="XMLID_539_">
						<polygon class="st12" points="269.5,18.7 263.2,18.9 269.5,50.6 285.6,50.6 285.6,48.4 						"/>
					</g>
				</g>
				<g id="XMLID_402_">
					<g id="XMLID_538_">
						<polygon class="st12" points="267.8,50.6 214,49.9 210.4,20.2 261.6,18.9 						"/>
					</g>
				</g>
				<g id="XMLID_445_">
					<g id="XMLID_473_">
						<path class="st34" d="M131.6,49.8l-1-1.4c11.6-10.6,40.3-26.2,57.3-29.3c16-2.9,84.7-4,85.4-4l0,1.8c-0.7,0-69.3,1.1-85.2,4
							C171.4,24,143.1,39.3,131.6,49.8z"/>
					</g>
				</g>
				<g id="XMLID_392_">
					<g id="XMLID_537_">
						<polygon class="st10" points="269.5,18.7 210.4,20.2 214,49.9 211.6,49.9 207.8,18.2 271.6,16 						"/>
					</g>
				</g>
				<g id="XMLID_128_">
					<g id="XMLID_536_">
						<polygon class="st10" points="283.5,6.1 273.3,19.1 289.3,48.4 285.6,48.4 269.5,18.7 280.9,4 						"/>
					</g>
				</g>
				<g id="XMLID_446_">
					<g id="XMLID_472_">
						<path class="st34" d="M125.9,49.7l-19.1-0.2l0-0.9l18.8,0.2c5.9-5.8,24.1-17,27-18.7l-4.5-9.8l0.7-0.4l4.8,10.6l-0.4,0.2
							c-0.2,0.1-21.2,12.8-27.3,18.9L125.9,49.7z"/>
					</g>
				</g>
				<g id="XMLID_129_">
					<g id="XMLID_535_">
						<polygon class="st10" points="434.7,65.4 436.7,65.4 434.7,78.5 423.2,78.5 432.5,65.4 						"/>
					</g>
				</g>
				<g id="XMLID_127_">
					<g id="XMLID_534_">
						<rect x="419.6" y="78.5" class="st19" width="7.1" height="8.4"/>
					</g>
				</g>
				<g id="XMLID_440_">
					<g id="XMLID_442_">
						<g id="XMLID_533_">
							<polygon class="st5" points="163.5,116.2 67.5,116.2 67.5,74.8 142.7,74.8 							"/>
						</g>
					</g>
					<g id="XMLID_441_">
						<g id="XMLID_532_">
							<polygon class="st5" points="407.8,114.7 394.6,119 323.5,118.6 324.6,76.8 411.6,71.1 							"/>
						</g>
					</g>
				</g>
				<g id="XMLID_399_">
					<g id="XMLID_422_">
						<g id="XMLID_531_">
							<ellipse class="st9" cx="116.9" cy="109" rx="29.6" ry="30.5"/>
						</g>
					</g>
					<g id="XMLID_407_">
						<g id="XMLID_420_">
							<g id="XMLID_530_">
								<ellipse class="st5" cx="116.9" cy="109" rx="16.6" ry="17.2"/>
							</g>
						</g>
						<g id="XMLID_418_">
							<g id="XMLID_529_">
								<ellipse class="st10" cx="116.9" cy="109" rx="10.2" ry="10.6"/>
							</g>
						</g>
						<g id="XMLID_415_">
							<g id="XMLID_749_">
								<path class="st10" d="M135.3,109c0-10.5-8.2-19-18.4-19c-10.2,0-18.4,8.5-18.4,19c0,10.5,8.2,19,18.4,19
									C127.1,128,135.3,119.5,135.3,109z M102,109c0-8.5,6.7-15.4,14.9-15.4c8.3,0,14.9,6.9,14.9,15.4s-6.7,15.4-14.9,15.4
									C108.7,124.4,102,117.5,102,109z"/>
							</g>
						</g>
						<g id="XMLID_414_">
							<g id="XMLID_471_">
								<rect x="122.1" y="108.1" class="st10" width="9.8" height="1.8"/>
							</g>
						</g>
						<g id="XMLID_413_">
							<g id="XMLID_470_">
								<polygon class="st10" points="120.3,104.8 118.7,103.9 123.6,95.2 125.2,96.1 								"/>
							</g>
						</g>
						<g id="XMLID_412_">
							<g id="XMLID_469_">
								<polygon class="st10" points="113.6,104.8 108.7,96.1 110.2,95.2 115.1,103.9 								"/>
							</g>
						</g>
						<g id="XMLID_411_">
							<g id="XMLID_468_">
								<rect x="102" y="108.1" class="st10" width="9.8" height="1.8"/>
							</g>
						</g>
						<g id="XMLID_410_">
							<g id="XMLID_467_">
								<polygon class="st10" points="110.2,122.8 108.7,121.9 113.6,113.1 115.1,114 								"/>
							</g>
						</g>
						<g id="XMLID_409_">
							<g id="XMLID_466_">
								<polygon class="st10" points="123.6,122.8 118.7,114 120.3,113.1 125.2,121.9 								"/>
							</g>
						</g>
						<g id="XMLID_408_">
							<g id="XMLID_528_">
								<ellipse class="st11" cx="116.9" cy="109" rx="5.2" ry="5.4"/>
							</g>
						</g>
					</g>
				</g>
				<g id="XMLID_406_">
					<g id="XMLID_527_">
						<path class="st35" d="M441.1,104.9c-2,2.6-4.9,4.1-8,4.1h-25.3c0,0-5.5-23.4-9.5-26.2c-4-2.8-31.2-1.4-38.4-1.4
							c-7.1,0-36.4,37.2-36.4,37.2h-170c0,0-4.7-6.9-9.7-12.5c-1.3-1.5-2.6-2.9-3.8-4c-6-5.5-28.1-2.8-38.3-2.8S77.5,114,77.5,114
							h-55V87L2.8,28.7l33.4,2.6c8.3,0.7,16.4,2.5,24.2,5.4c7.8,2.9,15.3,7,22.3,12.1l222.3,1.8l20.2-7.3l78.3,2.3l31.3,5.5
							c1.5,0.3,2.8,1.3,3.6,2.8c1.1,2.2,1,4.9-0.4,6.9L419.6,87l7.1-0.1L441.1,104.9z"/>
					</g>
				</g>
				<g id="XMLID_450_">
					<g id="XMLID_526_">
						<path class="st36" d="M441.1,104.9c-2,2.6-4.9,4.1-8,4.1h-25.3c0,0-5.5-23.4-9.5-26.2c-4-2.8-31.2-1.4-38.4-1.4
							c-7.1,0-36.4,37.2-36.4,37.2h-170c0,0-4.7-6.9-9.7-12.5c-1.3-1.5-2.6-2.9-3.8-4c-6-5.5-28.1-2.8-38.3-2.8S77.5,114,77.5,114
							h-55V87l-5.4-15.8l28.9,2.5l384.7-2.5L419.6,87l7.1-0.1L441.1,104.9z"/>
					</g>
				</g>
				<g id="XMLID_424_">
					<g id="XMLID_439_">
						<g id="XMLID_525_">
							<ellipse class="st9" cx="371" cy="109" rx="29.7" ry="30.5"/>
						</g>
					</g>
					<g id="XMLID_426_">
						<g id="XMLID_438_">
							<g id="XMLID_524_">
								<ellipse class="st5" cx="371" cy="109" rx="16.2" ry="16.6"/>
							</g>
						</g>
						<g id="XMLID_437_">
							<g id="XMLID_523_">
								<ellipse class="st10" cx="371" cy="109" rx="10.3" ry="10.6"/>
							</g>
						</g>
						<g id="XMLID_434_">
							<g id="XMLID_719_">
								<path class="st10" d="M389.5,109c0-10.5-8.3-19-18.5-19c-10.2,0-18.5,8.5-18.5,19c0,10.5,8.3,19,18.5,19
									C381.2,128,389.5,119.5,389.5,109z M356,109c0-8.5,6.7-15.4,15-15.4c8.3,0,15,6.9,15,15.4s-6.7,15.4-15,15.4
									C362.7,124.4,356,117.5,356,109z"/>
							</g>
						</g>
						<g id="XMLID_433_">
							<g id="XMLID_465_">
								<rect x="376.2" y="108.1" class="st10" width="9.9" height="1.8"/>
							</g>
						</g>
						<g id="XMLID_432_">
							<g id="XMLID_464_">
								<polygon class="st10" points="374.3,104.8 372.8,103.9 377.7,95.2 379.3,96.1 								"/>
							</g>
						</g>
						<g id="XMLID_431_">
							<g id="XMLID_463_">
								<polygon class="st10" points="367.6,104.8 362.7,96.1 364.2,95.2 369.2,103.9 								"/>
							</g>
						</g>
						<g id="XMLID_430_">
							<g id="XMLID_462_">
								<rect x="356" y="108.1" class="st10" width="9.9" height="1.8"/>
							</g>
						</g>
						<g id="XMLID_429_">
							<g id="XMLID_461_">
								<polygon class="st10" points="364.2,122.8 362.7,121.9 367.6,113.1 369.2,114 								"/>
							</g>
						</g>
						<g id="XMLID_428_">
							<g id="XMLID_460_">
								<polygon class="st10" points="377.7,122.8 372.8,114 374.3,113.1 379.3,121.9 								"/>
							</g>
						</g>
						<g id="XMLID_427_">
							<g id="XMLID_522_">
								<ellipse class="st11" cx="371" cy="109" rx="5.3" ry="5.4"/>
							</g>
						</g>
					</g>
				</g>
				<g id="XMLID_394_">
					<g id="XMLID_521_">
						<polygon class="st37" points="15.8,67.2 11.5,67.2 11.5,84.2 21.6,84.2 						"/>
					</g>
				</g>
				<g id="XMLID_398_">
					<g id="XMLID_520_">
						<rect x="11.5" y="67.2" class="st38" width="3.5" height="17"/>
					</g>
				</g>
				<g id="XMLID_387_">
					<g id="XMLID_519_">
						<path class="st10" d="M448.5,95.5l-7.5,9.4c-2,2.6-4.9,4.1-8,4.1h-25.3c0,0-3.5-14.6-6.9-22.1h45.6
							C449.6,87.9,450.9,92.5,448.5,95.5z"/>
					</g>
				</g>
				<g id="XMLID_379_">
					<g id="XMLID_518_">
						<path class="st10" d="M46.1,114H2c-1.1,0-2-1-2-2.3l0,0c0-1.3,0.9-2.3,2-2.3h44.1V114z"/>
					</g>
				</g>
				<g id="XMLID_381_">
					<g id="XMLID_517_">
						<path class="st39" d="M46.1,109.4c0,0,30.3-0.2,31.4,4.6H46.1V109.4z"/>
					</g>
				</g>
				<g id="XMLID_384_">
					<g id="XMLID_459_">
						<rect x="304.9" y="50.3" class="st40" width="126.9" height="0.9"/>
					</g>
				</g>
				<g id="XMLID_385_">
					<g id="XMLID_458_">
						<polygon class="st40" points="336.2,51 335.6,50.4 340.6,43.5 341.2,44.1 						"/>
					</g>
				</g>
				<g id="XMLID_383_">
					<g id="XMLID_457_">
						<path class="st40" d="M307.5,112.2h-93.1c-2.7,0-4.9-2.5-4.9-5.7V49.9h0.8v56.6c0,2.6,1.8,4.7,4.1,4.7h93.1
							c4.1,0,7.5-3.9,7.5-8.7V61.4L309.2,51l0.7-0.5l5.9,10.7v41.4C315.8,107.9,312,112.2,307.5,112.2z"/>
					</g>
				</g>
				<g id="XMLID_386_">
					<g id="XMLID_456_">
						<rect x="307.1" y="111.7" class="st40" width="0.8" height="6.9"/>
					</g>
				</g>
				<g id="XMLID_389_">
					<g id="XMLID_516_">
						<polygon class="st37" points="41.2,88.1 160.1,90.3 41.5,90.3 						"/>
					</g>
				</g>
				<g id="XMLID_388_">
					<g id="XMLID_515_">
						<polygon class="st10" points="153.5,118.6 143.8,106.1 151.2,106.1 160.8,118.6 						"/>
					</g>
				</g>
				<g id="XMLID_397_">
					<g id="XMLID_514_">
						<path class="st37" d="M147.3,106.1h-3.4c-1.3-1.5-2.6-2.9-3.8-4c-6-5.5-28.1-2.8-38.3-2.8S77.5,114,77.5,114l-1.4-1.4
							c0,0,9.7-18.6,40.1-18C146.7,95.2,147.3,106.1,147.3,106.1z"/>
					</g>
				</g>
				<g id="XMLID_396_">
					<g id="XMLID_513_">
						<path class="st37" d="M406.4,87l-4.7,1.8c-1.2-2.9-2.3-5.2-3.4-5.9c-4-2.8-31.2-1.4-38.4-1.4c-7.1,0-36.4,37.2-36.4,37.2h-4.6
							c0,0,30.5-41.5,40.2-41.5c14,0,36.6-1.6,38.8,0C400.1,78.7,406.4,87,406.4,87z"/>
					</g>
				</g>
				<g id="XMLID_390_">
					<g id="XMLID_512_">
						<polygon class="st10" points="325.1,43.4 320.4,40.2 302.6,48.4 292.7,48.4 285.6,48.4 285.6,50.6 304.9,50.6 						"/>
					</g>
				</g>
				<g id="XMLID_400_">
					<g id="XMLID_511_">
						<path class="st38" d="M407.8,109v5.7h6.7l6.9-5.7v-5.3h0c-2.2,0-4.2,1.7-4.9,4.1l0,0h-7.1l-5.9-19.7l-1.7,0.7L407.8,109z"/>
					</g>
				</g>
				<g id="XMLID_380_">
					<g id="XMLID_510_">
						<path class="st10" d="M0.7,80.8h11.2l4.5,5h21.5c1.4,0,2.6,0.9,3.3,2.3l0,0c0.6,1.4,0.5,3-0.3,4.3l-5.7,9.4
							c-1.5,2.5-3.9,3.9-6.5,3.9h-7.8C9.3,105.8,0,94.9,0,81.6l0,0C0,81.1,0.3,80.8,0.7,80.8z"/>
					</g>
				</g>
				<g id="XMLID_382_">
					<g id="XMLID_509_">
						<polygon class="st41" points="2.4,28.2 23,30.3 46.1,73.7 426.8,66.5 421,70.7 22.5,87 						"/>
					</g>
				</g>
				<g id="XMLID_443_">
					<g id="XMLID_508_">
						<polygon class="st42" points="421,70.7 22.5,87 2.4,28.2 7,28.7 28.2,80.8 423.2,69.1 						"/>
					</g>
				</g>
				<g id="XMLID_449_">
					<g id="XMLID_505_">
						<rect x="213.6" y="54.8" class="st41" width="13.4" height="5.5"/>
					</g>
				</g>
				<g id="XMLID_451_">
					<g id="XMLID_455_">
						<rect x="296.1" y="54.8" class="st40" width="8.2" height="2.8"/>
					</g>
				</g>
			</g>
		</g>
		<g id="XMLID_822_" class="st0">
			<g id="XMLID_824_" class="st2">
				<path class="st26" d="M438.6-132.8l4.9-3.2c0.7-0.5,1.2-1.3,1.2-2.2l0,0c0-1.5-1.2-2.7-2.7-2.6l-22.2,0.3
					c-3.3,0-3.6,4.9-0.3,5.3L438.6-132.8z"/>
			</g>
			<g id="XMLID_820_" class="st2">
				<g id="XMLID_821_">
					<ellipse class="st3" cx="264.8" cy="-36.4" rx="205.5" ry="16.2"/>
				</g>
			</g>
			<g id="XMLID_819_" class="st2">
				<g id="XMLID_680_">
					<rect x="51.4" y="-99.1" class="st43" width="6" height="35.7"/>
				</g>
				<g id="XMLID_693_">
					<path class="st44" d="M443.4-134.3c-5.2-4.9-117.1-10.5-117.1-10.5l-17.5-26.5c0,0-14.9-9.9-58-9.9c-43.2,0-60.8,8.8-69.5,15.3
						c-8.6,6.5-13.6,20.5-33.7,23.3c-20.1,2.8-81.3,13.2-81.3,58.3v16.8h31.3l7.4,5.2h0.9c0.8-17.6,15.3-31.7,33.2-31.7
						c17.8,0,32.4,14.1,33.2,31.7h191.9h8.7c0.8-17.6,15.3-31.7,33.2-31.7c17.8,0,32.4,14.1,33.2,31.7h12.5
						C462.6-94.3,448.6-129.4,443.4-134.3z"/>
				</g>
				<g id="XMLID_808_">
					<rect x="317.2" y="-132.5" class="st45" width="3.3" height="5.1"/>
				</g>
				<g id="XMLID_816_">
					<path class="st46" d="M451.7-62.4h-12.5c-0.8-17.6-15.3-31.7-33.1-31.7c-17.8,0-32.4,14.1-33.1,31.7H172.2
						c-0.8-17.6-15.3-31.7-33.2-31.7c-17.8,0-32.4,14.1-33.1,31.7h-0.9l-7.4-5.2H66.3v-16.8c0-8.2,2-15.3,5.5-21.4h382.3
						C456.5-92.9,456.8-77.3,451.7-62.4z"/>
				</g>
				<g id="XMLID_811_">
					<rect x="317.2" y="-83.3" class="st45" width="3.3" height="5.1"/>
				</g>
				<g id="XMLID_45_">
					<rect x="187.6" y="-64.4" class="st4" width="138.4" height="7.5"/>
				</g>
				<g id="XMLID_689_">
					<rect x="453.9" y="-90.3" class="st19" width="4.4" height="13.4"/>
				</g>
				<g id="XMLID_682_">
					<polygon class="st10" points="79.8,-116 77.4,-119.2 69.7,-108.7 71.8,-105.8 					"/>
				</g>
				<g id="XMLID_807_">
					<polygon class="st24" points="451.7,-62.4 446.7,-100.1 358.8,-100.1 358.8,-62.4 					"/>
				</g>
				<g id="XMLID_754_">
					<polygon class="st24" points="105.9,-62.4 97.6,-67.6 85.1,-67.9 85.1,-100.1 179.9,-100.1 189.9,-62.4 					"/>
				</g>
				<g id="XMLID_696_">
					<path class="st12" d="M240.8-170.5v23.3c0,1,0.8,1.7,1.7,1.7h61.6c2.7,0,4.3-3,2.9-5.3c-4.5-7-12.9-18.8-19.9-19.8
						c-8.7-1.2-37.2-1.6-44.6-1.7C241.6-172.3,240.8-171.5,240.8-170.5z"/>
				</g>
				<g id="XMLID_695_">
					<path class="st12" d="M236.2-170.4v23.2c0,1-0.8,1.7-1.7,1.7H194c-2.5,0-3.8-2.9-2.2-4.8c4.3-5,11.7-12.4,19.7-15.9
						c9.6-4.2,19-5.5,22.8-5.9C235.4-172.2,236.2-171.4,236.2-170.4z"/>
				</g>
				<g id="XMLID_67_">
					<path id="XMLID_197_" class="st47" d="M446.2-114.2c0-0.1-2.2-7.4-10.6-11.9c-8.6-4.6-188.7-8.3-265.9-7.1
						c-77.4,1.1-88.7,16.6-88.8,16.7l-0.8-0.6c0.4-0.7,11.4-16,89.6-17.2c77.2-1.1,257.6,2.6,266.3,7.3c8.7,4.6,11,12.2,11.1,12.5
						L446.2-114.2z"/>
				</g>
				<g id="XMLID_44_">
					<path class="st45" d="M66.3-67.6v-21.6c0,0,5.4-26.3,39.3-30.6c33.9-4.3,67.7-3.5,75.5,11c6.5,12.1,10.3,29.4,10.6,42.8
						c0.1,5.9-5.4,10.4-11,8.8c-1.8-0.5-3.4-1.7-4.3-3.9c-3.2-7.8-2.8-38.8-34.3-38.8c-31.5,0-30.9,20.3-36.5,26.3c-5.6,6-8,6-8,6
						H66.3z"/>
				</g>
				<g id="XMLID_694_">
					<g id="XMLID_690_">
						<polygon class="st10" points="435.8,-119.7 456.1,-120.8 456.1,-100.1 447.8,-100.1 						"/>
					</g>
					<g id="XMLID_691_">
						<path class="st13" d="M456.1-101L456.1-101v-19l0,0c1.9,0,3.5,1.6,3.5,3.5v12C459.6-102.6,458.1-101,456.1-101z"/>
					</g>
				</g>
				<g id="XMLID_57_">
					<path class="st45" d="M360.2-58.7L360.2-58.7c2.7,0,4.9-2.2,4.9-4.9v-4c0,0,8.6-31.4,42.3-31.4c33.7,0,41.1,34.5,41.1,34.5
						s12.3-28.2-0.3-47.9c-2.7-4.3-7.4-7-12.4-7.4c-16.9-1.5-61.4-4.7-81.9,0.6c-25.6,6.6-26.5,33.4-29.9,39.4
						c-3.5,6-8.9,14.1-8.9,14.1v6.9H360.2z"/>
				</g>
				<g id="XMLID_63_">
					<g id="XMLID_56_">
						<rect x="327.7" y="-80.8" class="st44" width="36.2" height="2"/>
					</g>
					<g id="XMLID_64_">
						<rect x="326" y="-76.5" class="st44" width="36.2" height="2"/>
					</g>
					<g id="XMLID_65_">
						<rect x="323.4" y="-72.2" class="st44" width="36.2" height="2"/>
					</g>
				</g>
				<g id="XMLID_43_">
					<g id="XMLID_688_">
						<rect x="66.3" y="-85.1" class="st44" width="34.6" height="2"/>
					</g>
					<g id="XMLID_687_">
						<rect x="66.3" y="-80.8" class="st44" width="34.6" height="2"/>
					</g>
					<g id="XMLID_686_">
						<rect x="66.3" y="-76.5" class="st44" width="34.6" height="2"/>
					</g>
				</g>
				<g id="XMLID_66_">
					<path class="st26" d="M178.6-102.4H81.9c-0.7,0-1.3-0.6-1.3-1.3l0,0c0-0.7,0.6-1.3,1.3-1.3h96.7c0.7,0,1.3,0.6,1.3,1.3l0,0
						C179.9-103,179.3-102.4,178.6-102.4z"/>
				</g>
				<g id="XMLID_88_">
					<path class="st26" d="M437.5-102.4h-96.7c-0.7,0-1.3-0.6-1.3-1.3l0,0c0-0.7,0.6-1.3,1.3-1.3h96.7c0.7,0,1.3,0.6,1.3,1.3l0,0
						C438.8-103,438.2-102.4,437.5-102.4z"/>
				</g>
				<g id="XMLID_87_">
					<g id="XMLID_828_">
						<polygon class="st47" points="341.9,-113.3 341.1,-113 332.7,-137.3 337.6,-144.2 338.6,-144.1 333.7,-137.1 						"/>
					</g>
				</g>
				<g id="XMLID_68_">
					<polygon class="st12" points="310.2,-169.3 307.3,-167.7 321.3,-147.2 324.7,-147.2 					"/>
				</g>
				<g id="XMLID_664_">
					<path id="XMLID_193_" class="st47" d="M319.3-141H177.4l0.6-0.8c0.6-0.8,13.8-18.8,23.4-25.2c3.7-2.4,9.9-4.6,18.7-6.5
						c11.4-2.4,23.5-3.5,35.9-3.2c11.8,0.3,27.6,1.1,35.3,3c13,3.2,27.1,30.7,27.7,31.9L319.3-141z M179.4-142h138.3
						c-2.3-4.4-15.2-27.9-26.6-30.7c-7.6-1.9-23.3-2.6-35.1-2.9c-12.3-0.3-24.3,0.7-35.7,3.2c-8.6,1.8-14.8,4-18.3,6.3
						C193.6-160.6,182.1-145.6,179.4-142z"/>
				</g>
				<g id="XMLID_89_">
					<path id="XMLID_190_" class="st23" d="M234.5-144H194c-1.7,0-3.3-1-4-2.6c-0.7-1.6-0.5-3.4,0.7-4.7
						c4.8-5.5,12.1-12.8,20.3-16.3c9.9-4.3,19.6-5.6,23.3-6c0.9-0.1,1.8,0.2,2.5,0.8c0.7,0.6,1.1,1.5,1.1,2.4v23.2
						C237.7-145.5,236.3-144,234.5-144z M234.5-170.6C234.5-170.6,234.5-170.6,234.5-170.6c-3.6,0.4-12.9,1.6-22.4,5.8
						c-8,3.5-15.5,11.2-19.2,15.5c-0.6,0.6-0.3,1.3-0.2,1.5c0.1,0.2,0.4,0.8,1.3,0.8h40.5c0.1,0,0.2-0.1,0.2-0.2v-23.2
						c0-0.1,0-0.1-0.1-0.2C234.6-170.6,234.6-170.6,234.5-170.6z"/>
				</g>
				<g id="XMLID_665_">
					<path id="XMLID_187_" class="st23" d="M304.1-144h-61.6c-1.8,0-3.2-1.4-3.2-3.2v-23.3c0-0.9,0.3-1.7,1-2.3
						c0.6-0.6,1.5-0.9,2.3-0.9c8.3,0.1,36,0.5,44.8,1.7c7.2,1,15.4,11.7,20.9,20.5c1,1.5,1,3.4,0.2,5C307.6-145,306-144,304.1-144z
						 M242.6-170.8c-0.1,0-0.1,0-0.2,0.1c0,0-0.1,0.1-0.1,0.2v23.3c0,0.1,0.1,0.2,0.2,0.2h61.6c0.7,0,1.3-0.4,1.7-1
						c0.3-0.6,0.3-1.4-0.1-2c-7.3-11.5-14.1-18.4-18.8-19.1C278.2-170.3,248.4-170.7,242.6-170.8
						C242.6-170.8,242.6-170.8,242.6-170.8z"/>
				</g>
				<g id="XMLID_669_">
					<path class="st47" d="M146.2-142.4c0,0-9.1,6.6-18.4,8.5c-9.2,1.9-32.3,6.5-32.3,6.5S112.8-138.2,146.2-142.4z"/>
				</g>
				<g id="XMLID_668_">
					<path class="st10" d="M56.7-61.1h8.6c3.3,0,6.1-2.5,6.5-5.8l1.3-10.1H54.4v13.6C54.4-62.1,55.4-61.1,56.7-61.1z"/>
				</g>
				<g id="XMLID_685_">
					<path class="st10" d="M462.9-61.1h-8.6c-3.3,0-6.1-2.5-6.5-5.8l-1.3-10.1h18.7v13.6C465.1-62.1,464.1-61.1,462.9-61.1z"/>
				</g>
				<g id="XMLID_679_">
					<rect x="62.6" y="-89.1" class="st4" width="3.7" height="12.3"/>
				</g>
				<g id="XMLID_681_">
					<rect x="55.9" y="-89.1" class="st19" width="6.8" height="4.1"/>
				</g>
				<g id="XMLID_683_">
					<polygon class="st30" points="85.1,-113.1 82,-116 69.7,-103.7 72.2,-101.4 79.6,-106.5 					"/>
				</g>
				<g id="XMLID_684_">
					<path class="st43" d="M465.1-56.9L465.1-56.9v-28.4l0,0c1.7,0,3.1,1.4,3.1,3.1V-60C468.3-58.3,466.8-56.9,465.1-56.9z"/>
				</g>
				<g id="XMLID_692_">
					<polygon class="st10" points="455.7,-90.3 452.8,-90.3 452.8,-97 457.9,-97 					"/>
				</g>
				<g id="XMLID_697_">
					<g id="XMLID_666_">
						<rect x="285.7" y="-170.6" class="st23" width="2.9" height="25"/>
					</g>
					<g id="XMLID_698_">
						<polygon class="st23" points="285.7,-145.5 285.7,-148.9 282.9,-145.5 						"/>
					</g>
				</g>
				<g id="XMLID_699_">
					<polygon class="st23" points="310.2,-169.3 307.3,-167.7 321.3,-147.2 324.7,-147.2 326.3,-144.8 319.8,-144.8 303.6,-168.1 
						308.8,-171.4 					"/>
				</g>
				<g id="XMLID_700_">
					<g id="XMLID_701_">
						<g id="XMLID_751_">
							<g id="XMLID_752_">
								<g id="XMLID_753_">
									<circle class="st25" cx="139.1" cy="-64.4" r="32.7"/>
								</g>
							</g>
						</g>
						<g id="XMLID_702_">
							<g id="XMLID_747_">
								<g id="XMLID_748_">
									<g id="XMLID_750_">
										<circle class="st26" cx="139.1" cy="-64.4" r="28.6"/>
									</g>
								</g>
							</g>
							<g id="XMLID_744_">
								<g id="XMLID_745_">
									<g id="XMLID_746_">
										<circle class="st9" cx="139.1" cy="-64.4" r="18.1"/>
									</g>
								</g>
							</g>
							<g id="XMLID_741_">
								<g id="XMLID_742_">
									<g id="XMLID_743_">
										<circle class="st10" cx="139.1" cy="-64.4" r="11.8"/>
									</g>
								</g>
							</g>
							<g id="XMLID_703_">
								<g id="XMLID_738_">
									<g id="XMLID_739_">
										<g id="XMLID_740_">
											<rect x="137.2" y="-82.5" class="st10" width="3.8" height="18.1"/>
										</g>
									</g>
								</g>
								<g id="XMLID_735_">
									<g id="XMLID_736_">
										<g id="XMLID_737_">
											
												<rect x="132.6" y="-81.3" transform="matrix(0.866 -0.5 0.5 0.866 54.1537 57.5944)" class="st10" width="3.8" height="18.1"/>
										</g>
									</g>
								</g>
								<g id="XMLID_732_">
									<g id="XMLID_733_">
										<g id="XMLID_734_">
											
												<rect x="129.3" y="-78" transform="matrix(0.5 -0.866 0.866 0.5 125.3144 79.1805)" class="st10" width="3.8" height="18.1"/>
										</g>
									</g>
								</g>
								<g id="XMLID_729_">
									<g id="XMLID_730_">
										<g id="XMLID_731_">
											<rect x="121" y="-66.3" class="st10" width="18.1" height="3.8"/>
										</g>
									</g>
								</g>
								<g id="XMLID_726_">
									<g id="XMLID_727_">
										<g id="XMLID_728_">
											
												<rect x="122.2" y="-61.8" transform="matrix(0.8661 -0.4999 0.4999 0.8661 47.5083 57.5862)" class="st10" width="18.1" height="3.8"/>
										</g>
									</g>
								</g>
								<g id="XMLID_723_">
									<g id="XMLID_724_">
										<g id="XMLID_725_">
											
												<rect x="125.5" y="-58.5" transform="matrix(0.5 -0.866 0.866 0.5 116.2488 88.2414)" class="st10" width="18.1" height="3.8"/>
										</g>
									</g>
								</g>
								<g id="XMLID_720_">
									<g id="XMLID_721_">
										<g id="XMLID_722_">
											<rect x="137.2" y="-64.4" class="st10" width="3.8" height="18.1"/>
										</g>
									</g>
								</g>
								<g id="XMLID_716_">
									<g id="XMLID_717_">
										<g id="XMLID_718_">
											
												<rect x="141.7" y="-65.6" transform="matrix(0.866 -0.5 0.5 0.866 47.5207 64.2286)" class="st10" width="3.8" height="18.1"/>
										</g>
									</g>
								</g>
								<g id="XMLID_713_">
									<g id="XMLID_714_">
										<g id="XMLID_715_">
											
												<rect x="145" y="-68.9" transform="matrix(0.5 -0.866 0.866 0.5 125.3089 97.303)" class="st10" width="3.8" height="18.1"/>
										</g>
									</g>
								</g>
								<g id="XMLID_710_">
									<g id="XMLID_711_">
										<g id="XMLID_712_">
											<rect x="139.1" y="-66.3" class="st10" width="18.1" height="3.8"/>
										</g>
									</g>
								</g>
								<g id="XMLID_707_">
									<g id="XMLID_708_">
										<g id="XMLID_709_">
											
												<rect x="137.9" y="-70.8" transform="matrix(0.8661 -0.4999 0.4999 0.8661 54.1407 64.2188)" class="st10" width="18.1" height="3.8"/>
										</g>
									</g>
								</g>
								<g id="XMLID_704_">
									<g id="XMLID_705_">
										<g id="XMLID_706_">
											
												<rect x="134.5" y="-74.2" transform="matrix(0.5 -0.866 0.866 0.5 134.3733 88.2421)" class="st10" width="18.1" height="3.8"/>
										</g>
									</g>
								</g>
							</g>
						</g>
					</g>
				</g>
				<g id="XMLID_755_">
					<g id="XMLID_756_">
						<g id="XMLID_804_">
							<g id="XMLID_805_">
								<g id="XMLID_806_">
									<circle class="st25" cx="406" cy="-64.4" r="32.7"/>
								</g>
							</g>
						</g>
						<g id="XMLID_757_">
							<g id="XMLID_801_">
								<g id="XMLID_802_">
									<g id="XMLID_803_">
										<circle class="st26" cx="406" cy="-64.4" r="28.6"/>
									</g>
								</g>
							</g>
							<g id="XMLID_798_">
								<g id="XMLID_799_">
									<g id="XMLID_800_">
										<circle class="st9" cx="406" cy="-64.4" r="18.1"/>
									</g>
								</g>
							</g>
							<g id="XMLID_795_">
								<g id="XMLID_796_">
									<g id="XMLID_797_">
										<circle class="st10" cx="406" cy="-64.4" r="11.8"/>
									</g>
								</g>
							</g>
							<g id="XMLID_758_">
								<g id="XMLID_792_">
									<g id="XMLID_793_">
										<g id="XMLID_794_">
											<rect x="404" y="-82.5" class="st10" width="3.8" height="18.1"/>
										</g>
									</g>
								</g>
								<g id="XMLID_789_">
									<g id="XMLID_790_">
										<g id="XMLID_791_">
											
												<rect x="399.5" y="-81.3" transform="matrix(0.866 -0.5 0.5 0.866 89.9109 191.0354)" class="st10" width="3.8" height="18.1"/>
										</g>
									</g>
								</g>
								<g id="XMLID_786_">
									<g id="XMLID_787_">
										<g id="XMLID_788_">
											
												<rect x="396.2" y="-78" transform="matrix(0.5 -0.866 0.866 0.5 258.7497 310.2986)" class="st10" width="3.8" height="18.1"/>
										</g>
									</g>
								</g>
								<g id="XMLID_783_">
									<g id="XMLID_784_">
										<g id="XMLID_785_">
											<rect x="387.8" y="-66.3" class="st10" width="18.1" height="3.8"/>
										</g>
									</g>
								</g>
								<g id="XMLID_780_">
									<g id="XMLID_781_">
										<g id="XMLID_782_">
											
												<rect x="389" y="-61.8" transform="matrix(0.8661 -0.4999 0.4999 0.8661 83.251 191.0028)" class="st10" width="18.1" height="3.8"/>
										</g>
									</g>
								</g>
								<g id="XMLID_777_">
									<g id="XMLID_778_">
										<g id="XMLID_779_">
											
												<rect x="392.4" y="-58.5" transform="matrix(0.5 -0.866 0.866 0.5 249.6771 319.3556)" class="st10" width="18.1" height="3.8"/>
										</g>
									</g>
								</g>
								<g id="XMLID_774_">
									<g id="XMLID_775_">
										<g id="XMLID_776_">
											<rect x="404" y="-64.4" class="st10" width="3.8" height="18.1"/>
										</g>
									</g>
								</g>
								<g id="XMLID_771_">
									<g id="XMLID_772_">
										<g id="XMLID_773_">
											
												<rect x="408.6" y="-65.6" transform="matrix(0.866 -0.5 0.5 0.866 83.2773 197.6692)" class="st10" width="3.8" height="18.1"/>
										</g>
									</g>
								</g>
								<g id="XMLID_768_">
									<g id="XMLID_769_">
										<g id="XMLID_770_">
											
												<rect x="411.9" y="-68.9" transform="matrix(0.5 -0.866 0.866 0.5 258.7369 328.4168)" class="st10" width="3.8" height="18.1"/>
										</g>
									</g>
								</g>
								<g id="XMLID_765_">
									<g id="XMLID_766_">
										<g id="XMLID_767_">
											<rect x="406" y="-66.3" class="st10" width="18.1" height="3.8"/>
										</g>
									</g>
								</g>
								<g id="XMLID_762_">
									<g id="XMLID_763_">
										<g id="XMLID_764_">
											
												<rect x="404.7" y="-70.8" transform="matrix(0.8661 -0.4999 0.4999 0.8661 89.8834 197.6355)" class="st10" width="18.1" height="3.8"/>
										</g>
									</g>
								</g>
								<g id="XMLID_759_">
									<g id="XMLID_760_">
										<g id="XMLID_761_">
											
												<rect x="401.4" y="-74.2" transform="matrix(0.5 -0.866 0.866 0.5 267.8009 319.3567)" class="st10" width="18.1" height="3.8"/>
										</g>
									</g>
								</g>
							</g>
						</g>
					</g>
				</g>
				<g id="XMLID_809_">
					<polygon id="XMLID_186_" class="st47" points="321,-132.5 320,-132.5 320,-136.2 319.4,-137.8 178.7,-137.8 176.3,-133.7 
						175.4,-134.2 178.1,-138.8 320.1,-138.8 321,-136.3 					"/>
				</g>
				<g id="XMLID_667_">
					<path id="XMLID_2_" class="st47" d="M312.5-66.2h-76.7V-142h83.1l2.2,5.7v57.7L312.5-66.2z M236.7-67.2h75.2l8.1-11.7v-57.3
						l-1.9-4.8h-81.4V-67.2z"/>
				</g>
				<g id="XMLID_813_">
					<g id="XMLID_810_">
						<path class="st47" d="M249.8-124.5h-6.7c-1.6,0-2.9-1.3-2.9-2.9l0,0c0-1.6,1.3-2.9,2.9-2.9h6.7c1.6,0,2.9,1.3,2.9,2.9l0,0
							C252.7-125.8,251.4-124.5,249.8-124.5z"/>
					</g>
					<g id="XMLID_812_">
						<circle class="st47" cx="255.9" cy="-127.2" r="1.4"/>
					</g>
				</g>
				<g id="XMLID_815_">
					<g id="XMLID_814_">
						<polygon class="st47" points="344.1,-143.8 344.1,-139.2 345.8,-139.2 345.8,-143.7 						"/>
					</g>
					<g id="XMLID_817_">
						<polygon class="st47" points="347.1,-143.7 347.1,-139.2 348.9,-139.2 348.9,-143.6 						"/>
					</g>
					<g id="XMLID_818_">
						<polygon class="st47" points="350.2,-143.5 350.2,-139.2 351.9,-139.2 351.9,-143.4 						"/>
					</g>
				</g>
			</g>
		</g>
	</g>
</g>
<g id="DESIGNED_BY_FREEPIK" class="st0">
	<g id="XMLID_204_" class="st2">
		<g id="XMLID_147_">
			<path id="XMLID_179_" class="st48" d="M149.4,190v-0.3c-0.3,0.4-0.7,0.7-1,1c-0.3,0.3-0.7,0.4-1.1,0.6c-0.4,0.1-0.8,0.2-1.3,0.2
				c-0.6,0-1.2-0.1-1.7-0.4c-0.5-0.3-1-0.6-1.4-1.1c-0.4-0.5-0.7-1.1-0.9-1.7c-0.2-0.7-0.3-1.4-0.3-2.1c0-1.6,0.4-2.9,1.2-3.8
				c0.8-0.9,1.8-1.4,3.1-1.4c0.7,0,1.4,0.1,1.9,0.4c0.5,0.3,1,0.7,1.5,1.2v-3.8c0-0.5,0.1-0.9,0.3-1.2c0.2-0.3,0.5-0.4,0.9-0.4
				c0.4,0,0.7,0.1,0.9,0.4c0.2,0.3,0.3,0.6,0.3,1.1V190c0,0.5-0.1,0.9-0.3,1.1c-0.2,0.2-0.5,0.4-0.9,0.4c-0.4,0-0.6-0.1-0.9-0.4
				C149.5,190.8,149.4,190.4,149.4,190z M144.3,186.1c0,0.7,0.1,1.3,0.3,1.8c0.2,0.5,0.5,0.9,0.9,1.1c0.4,0.3,0.8,0.4,1.2,0.4
				c0.5,0,0.9-0.1,1.2-0.4c0.4-0.2,0.7-0.6,0.9-1.1c0.2-0.5,0.3-1.1,0.3-1.8c0-0.7-0.1-1.3-0.3-1.8c-0.2-0.5-0.5-0.9-0.9-1.1
				c-0.4-0.3-0.8-0.4-1.3-0.4c-0.5,0-0.9,0.1-1.3,0.4c-0.4,0.3-0.7,0.7-0.9,1.2C144.4,184.9,144.3,185.5,144.3,186.1z"/>
			<path id="XMLID_171_" class="st48" d="M160.8,186.8h-5.1c0,0.6,0.1,1.1,0.4,1.6c0.2,0.5,0.5,0.8,0.9,1c0.4,0.2,0.8,0.3,1.3,0.3
				c0.3,0,0.6,0,0.9-0.1c0.3-0.1,0.5-0.2,0.7-0.3c0.2-0.2,0.5-0.3,0.7-0.5c0.2-0.2,0.5-0.4,0.8-0.7c0.1-0.1,0.3-0.2,0.6-0.2
				c0.3,0,0.5,0.1,0.6,0.2c0.2,0.1,0.2,0.4,0.2,0.6c0,0.2-0.1,0.5-0.3,0.8c-0.2,0.3-0.5,0.6-0.8,0.9c-0.4,0.3-0.8,0.5-1.4,0.7
				c-0.6,0.2-1.2,0.3-1.9,0.3c-1.7,0-3-0.5-3.9-1.4c-0.9-0.9-1.4-2.2-1.4-3.9c0-0.8,0.1-1.5,0.3-2.1c0.2-0.7,0.6-1.2,1-1.7
				c0.4-0.5,1-0.8,1.6-1.1c0.6-0.3,1.3-0.4,2.1-0.4c1,0,1.9,0.2,2.6,0.6c0.7,0.4,1.3,1,1.6,1.7c0.4,0.7,0.5,1.4,0.5,2.1
				c0,0.7-0.2,1.1-0.6,1.3C162,186.7,161.5,186.8,160.8,186.8z M155.7,185.3h4.7c-0.1-0.9-0.3-1.6-0.7-2c-0.4-0.4-1-0.7-1.6-0.7
				c-0.6,0-1.2,0.2-1.6,0.7C156.1,183.8,155.8,184.5,155.7,185.3z"/>
			<path id="XMLID_168_" class="st48" d="M172.6,188c0,0.7-0.2,1.3-0.5,1.8c-0.3,0.5-0.9,0.9-1.5,1.2c-0.7,0.3-1.5,0.4-2.5,0.4
				c-0.9,0-1.7-0.1-2.4-0.4c-0.7-0.3-1.2-0.6-1.5-1.1c-0.3-0.4-0.5-0.9-0.5-1.3c0-0.3,0.1-0.5,0.3-0.7c0.2-0.2,0.5-0.3,0.8-0.3
				c0.3,0,0.5,0.1,0.6,0.2c0.1,0.1,0.3,0.3,0.4,0.6c0.3,0.5,0.6,0.8,1,1c0.4,0.2,0.9,0.3,1.5,0.3c0.5,0,0.9-0.1,1.3-0.3
				c0.3-0.2,0.5-0.5,0.5-0.8c0-0.5-0.2-0.8-0.5-1c-0.3-0.2-0.9-0.4-1.7-0.6c-0.9-0.2-1.6-0.5-2.2-0.7c-0.6-0.2-1-0.6-1.3-1
				c-0.3-0.4-0.5-0.9-0.5-1.5c0-0.5,0.2-1,0.5-1.5c0.3-0.5,0.8-0.8,1.4-1.1c0.6-0.3,1.3-0.4,2.2-0.4c0.7,0,1.3,0.1,1.8,0.2
				c0.5,0.1,1,0.3,1.3,0.6c0.4,0.2,0.6,0.5,0.8,0.8c0.2,0.3,0.3,0.6,0.3,0.8c0,0.3-0.1,0.5-0.3,0.7c-0.2,0.2-0.5,0.3-0.9,0.3
				c-0.3,0-0.5-0.1-0.7-0.2c-0.2-0.2-0.4-0.4-0.6-0.7c-0.2-0.3-0.4-0.5-0.7-0.6c-0.3-0.2-0.6-0.2-1.1-0.2c-0.5,0-0.9,0.1-1.2,0.3
				c-0.3,0.2-0.5,0.4-0.5,0.7c0,0.3,0.1,0.5,0.3,0.7c0.2,0.2,0.5,0.3,0.9,0.4c0.4,0.1,0.9,0.3,1.6,0.4c0.8,0.2,1.5,0.4,2,0.7
				c0.5,0.3,0.9,0.6,1.2,1C172.5,187.1,172.6,187.6,172.6,188z"/>
			<path id="XMLID_165_" class="st48" d="M175.2,179.7c-0.4,0-0.7-0.1-0.9-0.3c-0.3-0.2-0.4-0.5-0.4-0.9c0-0.4,0.1-0.7,0.4-0.9
				c0.3-0.2,0.6-0.4,0.9-0.4c0.3,0,0.6,0.1,0.9,0.3c0.3,0.2,0.4,0.5,0.4,0.9c0,0.4-0.1,0.7-0.4,0.9
				C175.9,179.6,175.6,179.7,175.2,179.7z M176.5,182.4v7.5c0,0.5-0.1,0.9-0.4,1.2c-0.2,0.3-0.6,0.4-0.9,0.4s-0.7-0.1-0.9-0.4
				c-0.2-0.3-0.4-0.7-0.4-1.2v-7.4c0-0.5,0.1-0.9,0.4-1.2c0.2-0.3,0.5-0.4,0.9-0.4s0.7,0.1,0.9,0.4
				C176.4,181.5,176.5,181.9,176.5,182.4z"/>
			<path id="XMLID_162_" class="st48" d="M187.9,182.8v7.5c0,0.9-0.1,1.6-0.3,2.2c-0.2,0.6-0.5,1.1-0.9,1.5
				c-0.4,0.4-0.9,0.7-1.6,0.9c-0.7,0.2-1.5,0.3-2.4,0.3c-0.9,0-1.7-0.1-2.4-0.4c-0.7-0.3-1.2-0.6-1.6-1c-0.4-0.4-0.6-0.8-0.6-1.2
				c0-0.3,0.1-0.6,0.3-0.8c0.2-0.2,0.5-0.3,0.8-0.3c0.4,0,0.7,0.2,1,0.5c0.1,0.2,0.3,0.3,0.4,0.5c0.1,0.2,0.3,0.3,0.5,0.4
				c0.2,0.1,0.4,0.2,0.7,0.3c0.3,0.1,0.5,0.1,0.9,0.1c0.7,0,1.2-0.1,1.6-0.3c0.4-0.2,0.6-0.4,0.8-0.8c0.1-0.3,0.2-0.7,0.3-1.1
				c0-0.4,0-1,0.1-1.8c-0.4,0.6-0.9,1-1.4,1.3c-0.5,0.3-1.1,0.4-1.9,0.4c-0.9,0-1.6-0.2-2.3-0.7c-0.6-0.4-1.1-1.1-1.5-1.9
				c-0.3-0.8-0.5-1.7-0.5-2.8c0-0.8,0.1-1.5,0.3-2.1c0.2-0.6,0.5-1.2,0.9-1.6c0.4-0.4,0.8-0.8,1.4-1c0.5-0.2,1.1-0.3,1.7-0.3
				c0.7,0,1.4,0.1,1.9,0.4c0.5,0.3,1,0.7,1.5,1.3v-0.4c0-0.4,0.1-0.8,0.3-1c0.2-0.2,0.5-0.4,0.9-0.4c0.5,0,0.8,0.2,1,0.5
				C187.8,181.7,187.9,182.2,187.9,182.8z M180.4,186.1c0,1.1,0.2,1.8,0.7,2.4c0.5,0.5,1.1,0.8,1.8,0.8c0.4,0,0.8-0.1,1.2-0.3
				c0.4-0.2,0.7-0.6,0.9-1c0.2-0.5,0.4-1,0.4-1.7c0-1.1-0.2-1.9-0.7-2.5c-0.5-0.6-1.1-0.9-1.8-0.9c-0.7,0-1.3,0.3-1.8,0.8
				C180.6,184.2,180.4,185,180.4,186.1z"/>
			<path id="XMLID_159_" class="st48" d="M192,182.3v0.3c0.5-0.6,1-1,1.5-1.3c0.5-0.3,1.2-0.4,1.9-0.4c0.7,0,1.3,0.1,1.8,0.4
				c0.5,0.3,0.9,0.7,1.2,1.3c0.2,0.3,0.3,0.7,0.3,1c0.1,0.4,0.1,0.8,0.1,1.4v4.8c0,0.5-0.1,0.9-0.4,1.2c-0.2,0.3-0.5,0.4-0.9,0.4
				c-0.4,0-0.7-0.1-0.9-0.4c-0.2-0.3-0.4-0.7-0.4-1.2v-4.3c0-0.9-0.1-1.5-0.4-2c-0.2-0.5-0.7-0.7-1.4-0.7c-0.5,0-0.9,0.1-1.3,0.4
				c-0.4,0.3-0.7,0.7-0.8,1.1c-0.1,0.4-0.2,1.1-0.2,2.2v3.2c0,0.5-0.1,0.9-0.4,1.2c-0.2,0.3-0.6,0.4-0.9,0.4c-0.4,0-0.7-0.1-0.9-0.4
				c-0.2-0.3-0.4-0.7-0.4-1.2v-7.5c0-0.5,0.1-0.9,0.3-1.1c0.2-0.2,0.5-0.4,0.9-0.4c0.2,0,0.4,0.1,0.6,0.2c0.2,0.1,0.3,0.3,0.4,0.5
				C192,181.8,192,182,192,182.3z"/>
			<path id="XMLID_156_" class="st48" d="M207.8,186.8h-5.1c0,0.6,0.1,1.1,0.4,1.6c0.2,0.5,0.5,0.8,0.9,1c0.4,0.2,0.8,0.3,1.3,0.3
				c0.3,0,0.6,0,0.9-0.1c0.3-0.1,0.5-0.2,0.7-0.3c0.2-0.2,0.5-0.3,0.7-0.5c0.2-0.2,0.5-0.4,0.8-0.7c0.1-0.1,0.3-0.2,0.6-0.2
				c0.3,0,0.5,0.1,0.6,0.2c0.2,0.1,0.2,0.4,0.2,0.6c0,0.2-0.1,0.5-0.3,0.8c-0.2,0.3-0.5,0.6-0.8,0.9c-0.4,0.3-0.8,0.5-1.4,0.7
				c-0.6,0.2-1.2,0.3-1.9,0.3c-1.7,0-3-0.5-3.9-1.4c-0.9-0.9-1.4-2.2-1.4-3.9c0-0.8,0.1-1.5,0.3-2.1c0.2-0.7,0.6-1.2,1-1.7
				c0.4-0.5,1-0.8,1.6-1.1c0.6-0.3,1.3-0.4,2.1-0.4c1,0,1.9,0.2,2.6,0.6c0.7,0.4,1.3,1,1.6,1.7c0.4,0.7,0.5,1.4,0.5,2.1
				c0,0.7-0.2,1.1-0.6,1.3C209,186.7,208.5,186.8,207.8,186.8z M202.7,185.3h4.7c-0.1-0.9-0.3-1.6-0.7-2c-0.4-0.4-1-0.7-1.6-0.7
				c-0.6,0-1.2,0.2-1.6,0.7C203.1,183.8,202.8,184.5,202.7,185.3z"/>
			<path id="XMLID_153_" class="st48" d="M218.4,190v-0.3c-0.3,0.4-0.7,0.7-1,1c-0.3,0.3-0.7,0.4-1.1,0.6c-0.4,0.1-0.8,0.2-1.3,0.2
				c-0.6,0-1.2-0.1-1.7-0.4c-0.5-0.3-1-0.6-1.4-1.1c-0.4-0.5-0.7-1.1-0.9-1.7c-0.2-0.7-0.3-1.4-0.3-2.1c0-1.6,0.4-2.9,1.2-3.8
				c0.8-0.9,1.8-1.4,3.1-1.4c0.7,0,1.4,0.1,1.9,0.4c0.5,0.3,1,0.7,1.5,1.2v-3.8c0-0.5,0.1-0.9,0.3-1.2c0.2-0.3,0.5-0.4,0.9-0.4
				c0.4,0,0.7,0.1,0.9,0.4c0.2,0.3,0.3,0.6,0.3,1.1V190c0,0.5-0.1,0.9-0.3,1.1c-0.2,0.2-0.5,0.4-0.9,0.4c-0.4,0-0.6-0.1-0.9-0.4
				C218.5,190.8,218.4,190.4,218.4,190z M213.3,186.1c0,0.7,0.1,1.3,0.3,1.8c0.2,0.5,0.5,0.9,0.9,1.1c0.4,0.3,0.8,0.4,1.2,0.4
				c0.5,0,0.9-0.1,1.2-0.4c0.4-0.2,0.7-0.6,0.9-1.1c0.2-0.5,0.3-1.1,0.3-1.8c0-0.7-0.1-1.3-0.3-1.8c-0.2-0.5-0.5-0.9-0.9-1.1
				c-0.4-0.3-0.8-0.4-1.3-0.4c-0.5,0-0.9,0.1-1.3,0.4c-0.4,0.3-0.7,0.7-0.9,1.2C213.4,184.9,213.3,185.5,213.3,186.1z"/>
			<path id="XMLID_150_" class="st48" d="M229,178.5v4c0.5-0.5,1-0.9,1.5-1.2c0.5-0.3,1.1-0.4,1.9-0.4c0.9,0,1.6,0.2,2.3,0.6
				c0.6,0.4,1.2,1,1.5,1.8c0.4,0.8,0.5,1.7,0.5,2.8c0,0.8-0.1,1.5-0.3,2.2c-0.2,0.7-0.5,1.2-0.9,1.7c-0.4,0.5-0.8,0.9-1.4,1.1
				c-0.5,0.3-1.1,0.4-1.8,0.4c-0.4,0-0.8,0-1.1-0.1c-0.4-0.1-0.7-0.2-0.9-0.4c-0.2-0.2-0.5-0.3-0.6-0.5c-0.2-0.2-0.4-0.4-0.7-0.7
				v0.3c0,0.5-0.1,0.9-0.4,1.1c-0.2,0.3-0.5,0.4-0.9,0.4c-0.4,0-0.7-0.1-0.9-0.4c-0.2-0.3-0.3-0.6-0.3-1.1v-11.3
				c0-0.5,0.1-0.9,0.3-1.2c0.2-0.3,0.5-0.4,0.9-0.4c0.4,0,0.7,0.1,0.9,0.4C228.8,177.7,229,178,229,178.5z M229.1,186.2
				c0,1,0.2,1.8,0.7,2.4c0.5,0.6,1.1,0.8,1.9,0.8c0.7,0,1.2-0.3,1.7-0.9c0.5-0.6,0.7-1.4,0.7-2.4c0-0.7-0.1-1.3-0.3-1.8
				c-0.2-0.5-0.5-0.9-0.8-1.1c-0.4-0.3-0.8-0.4-1.3-0.4c-0.5,0-0.9,0.1-1.3,0.4c-0.4,0.3-0.7,0.7-0.9,1.2
				C229.2,184.9,229.1,185.5,229.1,186.2z"/>
			<path id="XMLID_148_" class="st48" d="M240,191.8l0.2-0.6l-3.2-8c-0.2-0.5-0.3-0.8-0.3-1c0-0.2,0.1-0.4,0.2-0.6
				c0.1-0.2,0.3-0.3,0.5-0.5c0.2-0.1,0.4-0.2,0.6-0.2c0.4,0,0.7,0.1,0.8,0.4c0.2,0.2,0.4,0.6,0.5,1l2.2,6.4l2.1-5.9
				c0.2-0.5,0.3-0.9,0.4-1.1c0.1-0.3,0.3-0.5,0.4-0.5c0.1-0.1,0.4-0.1,0.6-0.1c0.2,0,0.4,0.1,0.6,0.2c0.2,0.1,0.3,0.2,0.4,0.4
				c0.1,0.2,0.1,0.4,0.1,0.6c0,0.1-0.1,0.3-0.1,0.5c-0.1,0.2-0.1,0.4-0.2,0.7l-3.4,8.9c-0.3,0.8-0.6,1.4-0.9,1.8
				c-0.3,0.4-0.6,0.8-1.1,1c-0.5,0.2-1.1,0.4-1.9,0.4c-0.8,0-1.3-0.1-1.7-0.2c-0.4-0.2-0.6-0.5-0.6-0.9c0-0.3,0.1-0.5,0.3-0.7
				c0.2-0.2,0.4-0.2,0.8-0.2c0.1,0,0.3,0,0.4,0.1c0.2,0,0.3,0.1,0.4,0.1c0.3,0,0.5,0,0.7-0.1c0.2-0.1,0.3-0.2,0.5-0.5
				C239.7,192.5,239.8,192.2,240,191.8z"/>
		</g>
		<g id="XMLID_40_">
			<path id="XMLID_146_" class="st48" d="M277.6,181.1h0.6v-0.8c0-0.8,0.1-1.5,0.3-1.9c0.2-0.5,0.6-0.8,1-1c0.5-0.2,1.2-0.3,2-0.3
				c1.5,0,2.3,0.4,2.3,1.1c0,0.2-0.1,0.4-0.2,0.6c-0.2,0.2-0.3,0.3-0.6,0.3c-0.1,0-0.3,0-0.5-0.1c-0.2,0-0.5-0.1-0.6-0.1
				c-0.5,0-0.8,0.1-0.9,0.4c-0.1,0.3-0.2,0.7-0.2,1.2v0.6h0.6c1,0,1.5,0.3,1.5,0.9c0,0.4-0.1,0.7-0.4,0.8c-0.3,0.1-0.6,0.2-1.1,0.2
				h-0.6v6.9c0,0.5-0.1,0.9-0.4,1.2c-0.2,0.3-0.6,0.4-0.9,0.4c-0.4,0-0.7-0.1-0.9-0.4c-0.2-0.3-0.4-0.7-0.4-1.2V183h-0.7
				c-0.4,0-0.7-0.1-0.9-0.3c-0.2-0.2-0.3-0.4-0.3-0.7C276.3,181.4,276.7,181.1,277.6,181.1"/>
			<path id="XMLID_145_" class="st48" d="M286.1,187.7v2.2c0,0.5-0.1,0.9-0.4,1.2c-0.2,0.3-0.6,0.4-0.9,0.4c-0.4,0-0.7-0.1-0.9-0.4
				c-0.2-0.3-0.4-0.7-0.4-1.2v-7.2c0-1.2,0.4-1.7,1.3-1.7c0.4,0,0.7,0.1,0.9,0.4c0.2,0.3,0.3,0.7,0.3,1.2c0.3-0.5,0.6-0.9,0.9-1.2
				c0.3-0.3,0.8-0.4,1.3-0.4c0.5,0,1.1,0.1,1.6,0.4c0.5,0.3,0.8,0.6,0.8,1.1c0,0.3-0.1,0.6-0.3,0.8c-0.2,0.2-0.5,0.3-0.7,0.3
				c-0.1,0-0.3-0.1-0.7-0.2c-0.4-0.1-0.7-0.2-1-0.2c-0.4,0-0.7,0.1-0.9,0.3c-0.2,0.2-0.4,0.5-0.6,0.9c-0.1,0.4-0.2,0.9-0.3,1.4
				C286.1,186.3,286.1,186.9,286.1,187.7"/>
			<path id="XMLID_142_" class="st48" d="M298,186.8h-5.1c0,0.6,0.1,1.1,0.4,1.6c0.2,0.4,0.5,0.8,0.9,1c0.4,0.2,0.8,0.3,1.3,0.3
				c0.3,0,0.6,0,0.8-0.1c0.3-0.1,0.5-0.2,0.7-0.3c0.2-0.2,0.5-0.3,0.7-0.5c0.2-0.2,0.5-0.4,0.8-0.7c0.1-0.1,0.3-0.2,0.6-0.2
				c0.3,0,0.5,0.1,0.6,0.2c0.2,0.1,0.2,0.4,0.2,0.6c0,0.2-0.1,0.5-0.3,0.8c-0.2,0.3-0.5,0.6-0.8,0.9c-0.4,0.3-0.8,0.5-1.4,0.7
				c-0.6,0.2-1.2,0.3-1.9,0.3c-1.7,0-3-0.5-3.9-1.4c-0.9-1-1.4-2.2-1.4-3.9c0-0.8,0.1-1.5,0.3-2.1c0.2-0.7,0.6-1.2,1-1.7
				c0.4-0.5,1-0.8,1.6-1.1c0.6-0.2,1.3-0.4,2.1-0.4c1,0,1.9,0.2,2.6,0.6c0.7,0.4,1.3,1,1.6,1.7c0.4,0.7,0.5,1.4,0.5,2.1
				c0,0.6-0.2,1.1-0.6,1.3C299.2,186.7,298.6,186.8,298,186.8 M292.9,185.3h4.7c-0.1-0.9-0.3-1.5-0.7-2c-0.4-0.4-1-0.7-1.6-0.7
				c-0.6,0-1.2,0.2-1.6,0.7C293.2,183.8,293,184.4,292.9,185.3"/>
			<path id="XMLID_139_" class="st48" d="M308.8,186.8h-5.1c0,0.6,0.1,1.1,0.4,1.6c0.2,0.4,0.5,0.8,0.9,1c0.4,0.2,0.8,0.3,1.3,0.3
				c0.3,0,0.6,0,0.8-0.1c0.3-0.1,0.5-0.2,0.8-0.3c0.2-0.2,0.5-0.3,0.7-0.5c0.2-0.2,0.5-0.4,0.8-0.7c0.1-0.1,0.3-0.2,0.6-0.2
				c0.3,0,0.5,0.1,0.7,0.2c0.2,0.1,0.2,0.4,0.2,0.6c0,0.2-0.1,0.5-0.3,0.8c-0.2,0.3-0.5,0.6-0.8,0.9c-0.4,0.3-0.8,0.5-1.4,0.7
				c-0.6,0.2-1.2,0.3-1.9,0.3c-1.7,0-3-0.5-3.9-1.4c-0.9-1-1.4-2.2-1.4-3.9c0-0.8,0.1-1.5,0.3-2.1c0.2-0.7,0.6-1.2,1-1.7
				c0.4-0.5,1-0.8,1.6-1.1c0.6-0.2,1.4-0.4,2.1-0.4c1,0,1.9,0.2,2.6,0.6c0.7,0.4,1.3,1,1.6,1.7c0.4,0.7,0.5,1.4,0.5,2.1
				c0,0.6-0.2,1.1-0.6,1.3C310,186.7,309.4,186.8,308.8,186.8 M303.7,185.3h4.7c-0.1-0.9-0.3-1.5-0.7-2c-0.4-0.4-1-0.7-1.6-0.7
				c-0.6,0-1.2,0.2-1.6,0.7C304,183.8,303.8,184.4,303.7,185.3"/>
			<path id="XMLID_136_" class="st48" d="M314.4,182.3v0.3c0.5-0.6,1-1,1.5-1.3c0.5-0.3,1.1-0.4,1.8-0.4c0.8,0,1.5,0.2,2.2,0.6
				c0.7,0.4,1.2,1,1.6,1.8c0.4,0.8,0.6,1.7,0.6,2.8c0,0.8-0.1,1.5-0.3,2.2c-0.2,0.7-0.5,1.2-0.9,1.7c-0.4,0.5-0.9,0.8-1.4,1
				c-0.5,0.2-1.1,0.4-1.7,0.4c-0.7,0-1.4-0.1-1.9-0.4c-0.5-0.3-1-0.7-1.4-1.3v3.9c0,1.1-0.4,1.7-1.2,1.7c-0.5,0-0.8-0.1-1-0.4
				c-0.2-0.3-0.2-0.7-0.2-1.3v-11.2c0-0.5,0.1-0.9,0.3-1.1c0.2-0.2,0.5-0.4,0.9-0.4c0.4,0,0.7,0.1,0.9,0.4
				C314.3,181.5,314.4,181.9,314.4,182.3 M319.5,186.1c0-0.7-0.1-1.3-0.3-1.8c-0.2-0.5-0.5-0.9-0.9-1.1c-0.4-0.3-0.8-0.4-1.2-0.4
				c-0.7,0-1.3,0.3-1.8,0.8c-0.5,0.6-0.7,1.4-0.7,2.5c0,1,0.2,1.8,0.7,2.4c0.5,0.6,1.1,0.9,1.8,0.9c0.4,0,0.8-0.1,1.2-0.4
				c0.4-0.3,0.7-0.6,0.9-1.1C319.4,187.4,319.5,186.8,319.5,186.1"/>
			<path id="XMLID_133_" class="st48" d="M324.7,179.7c-0.4,0-0.7-0.1-0.9-0.3c-0.3-0.2-0.4-0.5-0.4-0.9c0-0.4,0.1-0.7,0.4-0.9
				c0.3-0.2,0.6-0.4,0.9-0.4c0.3,0,0.6,0.1,0.9,0.3c0.3,0.2,0.4,0.5,0.4,0.9c0,0.4-0.1,0.7-0.4,0.9
				C325.4,179.6,325.1,179.7,324.7,179.7 M326,182.4v7.5c0,0.5-0.1,0.9-0.4,1.2c-0.3,0.3-0.6,0.4-0.9,0.4c-0.4,0-0.7-0.1-0.9-0.4
				c-0.2-0.3-0.4-0.7-0.4-1.2v-7.4c0-0.5,0.1-0.9,0.4-1.2c0.2-0.3,0.5-0.4,0.9-0.4c0.4,0,0.7,0.1,0.9,0.4
				C325.9,181.5,326,181.9,326,182.4"/>
			<path id="XMLID_132_" class="st48" d="M334.4,190.2l-2.3-3.8l-1.4,1.3v2.1c0,0.5-0.1,0.9-0.4,1.1c-0.3,0.3-0.6,0.4-0.9,0.4
				c-0.4,0-0.7-0.1-0.9-0.4c-0.2-0.3-0.3-0.7-0.3-1.2v-11.1c0-0.6,0.1-1,0.3-1.3c0.2-0.3,0.5-0.5,1-0.5c0.4,0,0.7,0.1,0.9,0.4
				c0.2,0.3,0.4,0.7,0.4,1.2v6.3l2.9-3.1c0.4-0.4,0.6-0.6,0.8-0.8c0.2-0.1,0.4-0.2,0.7-0.2c0.3,0,0.6,0.1,0.8,0.3
				c0.2,0.2,0.3,0.5,0.3,0.8c0,0.4-0.4,0.9-1.1,1.5l-1.4,1.3l2.7,4.2c0.2,0.3,0.3,0.5,0.4,0.7c0.1,0.2,0.1,0.3,0.1,0.5
				c0,0.4-0.1,0.7-0.3,1c-0.2,0.2-0.5,0.4-0.9,0.4c-0.3,0-0.6-0.1-0.7-0.3C334.9,191,334.7,190.7,334.4,190.2"/>
			<path id="XMLID_131_" class="st48" d="M340,191.4c-0.4,0-0.7-0.1-1-0.4c-0.3-0.2-0.4-0.6-0.4-1.1c0-0.4,0.1-0.7,0.4-1
				c0.3-0.3,0.6-0.4,1-0.4c0.4,0,0.7,0.1,1,0.4c0.3,0.3,0.4,0.6,0.4,1c0,0.5-0.1,0.8-0.4,1.1C340.7,191.3,340.4,191.4,340,191.4"/>
			<path id="XMLID_130_" class="st48" d="M352.9,188.2c0,0.3-0.1,0.7-0.3,1c-0.2,0.4-0.5,0.7-0.9,1c-0.4,0.3-0.9,0.6-1.5,0.8
				c-0.6,0.2-1.3,0.3-2,0.3c-1.6,0-2.9-0.5-3.8-1.4c-0.9-0.9-1.3-2.2-1.3-3.8c0-1.1,0.2-2,0.6-2.8c0.4-0.8,1-1.4,1.8-1.9
				c0.8-0.4,1.7-0.7,2.8-0.7c0.7,0,1.3,0.1,1.9,0.3c0.6,0.2,1,0.5,1.4,0.8c0.4,0.3,0.7,0.6,0.9,1c0.2,0.4,0.3,0.7,0.3,1
				c0,0.3-0.1,0.6-0.3,0.8c-0.2,0.2-0.5,0.3-0.8,0.3c-0.2,0-0.4-0.1-0.5-0.2c-0.1-0.1-0.3-0.3-0.5-0.5c-0.3-0.5-0.6-0.8-1-1.1
				c-0.3-0.2-0.8-0.4-1.3-0.4c-0.8,0-1.4,0.3-1.9,0.9c-0.5,0.6-0.7,1.4-0.7,2.5c0,0.5,0.1,0.9,0.2,1.3c0.1,0.4,0.3,0.8,0.5,1
				c0.2,0.3,0.5,0.5,0.8,0.7c0.3,0.2,0.7,0.2,1.1,0.2c0.5,0,1-0.1,1.3-0.4c0.4-0.2,0.7-0.6,1-1.1c0.2-0.3,0.3-0.5,0.5-0.7
				c0.2-0.2,0.4-0.2,0.7-0.2c0.3,0,0.6,0.1,0.8,0.4C352.8,187.7,352.9,188,352.9,188.2"/>
			<path id="XMLID_122_" class="st48" d="M364.1,186.2c0,0.8-0.1,1.5-0.4,2.1c-0.2,0.7-0.6,1.2-1,1.7c-0.5,0.5-1,0.8-1.6,1.1
				c-0.6,0.2-1.3,0.4-2.1,0.4c-0.8,0-1.5-0.1-2.1-0.4c-0.6-0.2-1.2-0.6-1.6-1.1c-0.5-0.5-0.8-1-1.1-1.7c-0.2-0.6-0.4-1.4-0.4-2.1
				c0-0.8,0.1-1.5,0.4-2.2c0.2-0.7,0.6-1.2,1-1.7c0.5-0.5,1-0.8,1.6-1.1c0.6-0.2,1.3-0.4,2.1-0.4c0.8,0,1.5,0.1,2.1,0.4
				c0.6,0.3,1.2,0.6,1.6,1.1c0.5,0.5,0.8,1,1,1.7C364,184.7,364.1,185.4,364.1,186.2 M361.5,186.2c0-1.1-0.2-1.9-0.7-2.5
				c-0.5-0.6-1.1-0.9-1.9-0.9c-0.5,0-1,0.1-1.3,0.4c-0.4,0.3-0.7,0.6-0.9,1.2c-0.2,0.5-0.3,1.1-0.3,1.8c0,0.7,0.1,1.3,0.3,1.8
				c0.2,0.5,0.5,0.9,0.9,1.2c0.4,0.3,0.8,0.4,1.4,0.4c0.8,0,1.4-0.3,1.9-0.9C361.3,188,361.5,187.2,361.5,186.2"/>
			<path id="XMLID_41_" class="st48" d="M374,186.4v3.4c0,0.5-0.1,1-0.4,1.2c-0.3,0.3-0.6,0.4-1,0.4c-0.4,0-0.7-0.1-1-0.4
				c-0.2-0.3-0.4-0.7-0.4-1.2v-4.1c0-0.7,0-1.2-0.1-1.5c0-0.4-0.2-0.7-0.4-0.9c-0.2-0.2-0.5-0.4-0.9-0.4c-0.9,0-1.4,0.3-1.7,0.9
				c-0.3,0.6-0.4,1.4-0.4,2.5v3.5c0,0.5-0.1,0.9-0.4,1.2c-0.2,0.3-0.6,0.4-1,0.4c-0.4,0-0.7-0.1-1-0.4c-0.3-0.3-0.4-0.7-0.4-1.2
				v-7.4c0-0.5,0.1-0.9,0.3-1.1c0.2-0.3,0.5-0.4,0.9-0.4c0.4,0,0.7,0.1,0.9,0.4c0.2,0.2,0.4,0.6,0.4,1v0.2c0.5-0.5,0.9-0.9,1.4-1.2
				c0.5-0.3,1.1-0.4,1.7-0.4c0.7,0,1.2,0.1,1.7,0.4c0.5,0.3,0.9,0.7,1.2,1.2c0.4-0.5,0.9-0.9,1.4-1.2c0.5-0.3,1.1-0.4,1.7-0.4
				c0.7,0,1.3,0.1,1.8,0.4c0.5,0.3,0.9,0.7,1.1,1.2c0.2,0.5,0.3,1.2,0.3,2.2v5.1c0,0.5-0.1,1-0.4,1.2c-0.2,0.3-0.6,0.4-1,0.4
				c-0.4,0-0.7-0.1-1-0.4c-0.3-0.3-0.4-0.7-0.4-1.2v-4.4c0-0.6,0-1-0.1-1.3c0-0.3-0.2-0.6-0.4-0.8c-0.2-0.2-0.5-0.3-1-0.3
				c-0.3,0-0.7,0.1-1,0.3c-0.3,0.2-0.5,0.5-0.7,0.8C374.1,184.5,374,185.2,374,186.4"/>
		</g>
		<g id="XMLID_224_">
			<path id="XMLID_27_" class="st48" d="M253.3,185.5C253.3,185.5,253.3,185.5,253.3,185.5C253.3,185.5,253.3,185.5,253.3,185.5z"/>
			<path id="XMLID_26_" class="st48" d="M253.4,186.4C253.4,186.4,253.4,186.4,253.4,186.4c0-0.2-0.1-0.5-0.1-0.7
				C253.3,185.9,253.4,186.1,253.4,186.4z"/>
			<path id="XMLID_25_" class="st48" d="M254.3,188.8C254.3,188.8,254.3,188.7,254.3,188.8C254.3,188.7,254.3,188.8,254.3,188.8z"/>
			<path id="XMLID_23_" class="st48" d="M254.2,188.6c0,0,0-0.1-0.1-0.1C254.2,188.5,254.2,188.6,254.2,188.6z"/>
			<path id="XMLID_20_" class="st48" d="M253.7,187.3c0.1,0.4,0.3,0.8,0.5,1.2C253.9,188.1,253.8,187.7,253.7,187.3
				C253.7,187.3,253.7,187.3,253.7,187.3z"/>
			<path id="XMLID_17_" class="st48" d="M263.3,175.6c0.5,0,0.9,0,1.3,0.1l0.1-0.8c0,0-1.2-0.4-2.7-0.2l-0.1-0.4
				c0.5-0.1,0.8-0.5,0.8-1c0-0.6-0.5-1.1-1.1-1.1c-0.6,0-1.1,0.5-1.1,1.1c0,0.5,0.4,0.9,0.8,1l0.1,0.5c-1.6,0.2-2.9,0.9-2.9,0.9
				l0.2,0.7c1-0.3,1.8-0.5,2.6-0.6C262.3,175.6,262.9,175.6,263.3,175.6z"/>
			<path id="XMLID_4_" class="st48" d="M254.3,179.5L254.3,179.5c0-0.1,0.1-0.1,0.1-0.2l-0.3-0.2l-0.5-0.4c0,0-0.8,0.7-1.4,2
				c0,0-0.1-0.1-0.1-0.1c-0.2-0.2-0.4-0.3-0.8-0.3c0,0,0,0,0,0c-0.2,0-0.3-0.1-0.4-0.1c0.1-0.1,0.1-0.3,0.1-0.4
				c0-0.4-0.3-0.7-0.7-0.7c-0.4,0-0.7,0.3-0.7,0.7c0,0.4,0.3,0.7,0.7,0.7c0.1,0,0.1,0,0.2,0c0.2,0.2,0.4,0.3,0.8,0.3
				c0.2,0,0.3,0,0.4,0.2c0.1,0.1,0.1,0.3,0.2,0.4c0,0,0,0,0,0c-0.4,1.2-0.3,2.7-0.3,2.7l1.1,0c0-0.5,0.1-1.5,0.4-2.2
				C253.6,180.4,254.2,179.5,254.3,179.5z"/>
			<path id="XMLID_3_" class="st48" d="M272.5,176.5c-0.4,0-0.7,0.3-0.7,0.7c0,0.1,0,0.1,0,0.2c-0.2,0.2-0.3,0.4-0.3,0.8
				c0,0.2,0,0.3-0.2,0.4c-0.1,0.1-0.2,0.1-0.3,0.1c-0.8-1.1-1.8-1.8-1.8-1.8l-0.8,0.8c0.6,0.5,1.2,1.2,1.7,2c0.4,0.6,0.8,1.3,1.1,2
				l1-0.5c0,0-0.5-1.2-1.1-2.2c0.1,0,0.2-0.1,0.3-0.2c0.2-0.2,0.3-0.4,0.3-0.8c0-0.2,0.1-0.3,0.1-0.4c0.1,0.1,0.3,0.1,0.4,0.1
				c0.4,0,0.7-0.3,0.7-0.7C273.2,176.8,272.9,176.5,272.5,176.5z"/>
			<path id="XMLID_182_" class="st48" d="M269.9,185.7c-1.4,0.7-3.7,1.6-6.8,2c-1.2,0.2-2.4,0.2-3.4,0.2c-1.4,0-2.6-0.1-3.6-0.2
				c-1.1-0.1-1.9-0.3-2.4-0.4c0.1,0.4,0.3,0.8,0.5,1.2c0,0,0,0,0,0c0,0,0,0.1,0.1,0.1c0,0,0,0.1,0.1,0.1c0,0,0,0,0,0
				c0.3,0.6,0.7,1.1,1.1,1.5c1.4,1.6,2.9,1.8,2.9,1.8l0,0l0,0c0,0,1.3,0.4,3.3,0.4c1.9,0,3.9-0.4,5.7-1.2c1.3-0.7,2.6-1.7,3.3-2.7
				c0.5-0.7,0.8-1.5,1-2.3c0.1-0.4,0.2-1.1,0.1-1.8C271.3,184.9,270.7,185.3,269.9,185.7z"/>
			<path id="XMLID_226_" class="st48" d="M254.7,179.8c0,0.1-0.7,0.9-1.1,2.3c-0.4,1-0.3,2.4-0.3,2.5v0c0,0.3,0,0.7,0.1,1
				c0,0,0,0,0,0c0,0,0,0.1,0,0.1c0,0.2,0.1,0.5,0.1,0.7c0.7,0.2,4.9,1.2,9.5,0.5c2.9-0.4,5.1-1.3,6.5-1.9c1.1-0.5,1.8-1,2.1-1.2
				c-0.3-1-1-2.6-1.7-3.6c-2-2.9-4.2-3.6-5.3-3.8c-0.4-0.1-0.8-0.1-1.2-0.1c-0.4,0-1,0-1.7,0.1c-0.7,0.1-1.6,0.3-2.5,0.6
				c-1.3,0.5-2.6,1.2-3.5,2l0,0C255.4,179.1,255.1,179.4,254.7,179.8z M267,179.1c1,0,1.7,0.8,1.7,1.7c0,1-0.8,1.7-1.7,1.7
				c-1,0-1.7-0.8-1.7-1.7C265.2,179.9,266,179.1,267,179.1z M258.7,179.1c1.6,0,2.8,1.3,2.8,2.8c0,1.6-1.3,2.8-2.8,2.8
				c-1.6,0-2.8-1.3-2.8-2.8C255.9,180.3,257.2,179.1,258.7,179.1z"/>
		</g>
	</g>
</g>
</svg>
