<?xml version="1.0" encoding="iso-8859-1"?>
<!-- Generator: Adobe Illustrator 19.0.0, SVG Export Plug-In . SVG Version: 6.00 Build 0)  -->
<svg version="1.1" id="Capa_1" xmlns="http://www.w3.org/2000/svg" xmlns:xlink="http://www.w3.org/1999/xlink" x="0px" y="0px"
	 viewBox="0 0 512 512" style="enable-background:new 0 0 512 512;" xml:space="preserve">
<path style="fill:#303C42;" d="M458.667,64C452.771,64,448,68.771,448,74.667v10.667h-21.333V74.667
	C426.667,68.771,421.896,64,416,64c-5.896,0-10.667,4.771-10.667,10.667v42.667c0,13.888,8.944,25.617,21.333,30.035v225.965
	c0,5.885-4.792,10.667-10.667,10.667s-10.667-4.781-10.667-10.667V352c0-13.888-8.944-25.617-21.333-30.035V42.667
	C384,19.135,364.854,0,341.333,0H128c-23.521,0-42.667,19.135-42.667,42.667v384c-23.521,0-42.667,19.135-42.667,42.667v32
	c0,5.896,4.771,10.667,10.667,10.667H416c5.896,0,10.667-4.771,10.667-10.667v-32c0-23.531-19.146-42.667-42.667-42.667v-53.333
	c0,17.646,14.354,32,32,32c17.646,0,32-14.354,32-32V147.368c12.389-4.418,21.333-16.147,21.333-30.035V74.667
	C469.333,68.771,464.563,64,458.667,64z"/>
<path style="fill:#78909C;" d="M106.667,426.667v-384c0-11.76,9.563-21.333,21.333-21.333h213.333
	c11.771,0,21.333,9.573,21.333,21.333v384H106.667z"/>
<path style="fill:#303C42;" d="M330.667,42.667h-192c-5.896,0-10.667,4.771-10.667,10.667v128.198
	c0,5.896,4.771,10.667,10.667,10.667h192c5.896,0,10.667-4.771,10.667-10.667V53.333C341.333,47.438,336.563,42.667,330.667,42.667z
	"/>
<path style="fill:#78909C;" d="M405.333,469.333v21.333H64v-21.333C64,457.573,73.563,448,85.333,448H384
	C395.771,448,405.333,457.573,405.333,469.333z"/>
<path style="fill:#F2F2F2;" d="M437.333,128c-5.875,0-10.667-4.781-10.667-10.667v-10.667H448v10.667
	C448,123.219,443.208,128,437.333,128z"/>
<path style="fill:#303C42;" d="M288,277.333h-32V224c0-4.792-3.208-9-7.813-10.281c-4.708-1.271-9.542,0.688-12,4.792l-64,106.667
	c-1.979,3.302-2.021,7.406-0.146,10.75c1.896,3.344,5.458,5.406,9.292,5.406h32v53.333c0,4.792,3.208,9,7.813,10.281
	c0.958,0.26,1.917,0.385,2.854,0.385c3.688,0,7.188-1.906,9.146-5.177l64-106.667c1.979-3.302,2.021-7.406,0.146-10.75
	C295.396,279.396,291.833,277.333,288,277.333z"/>
<path style="fill:#FFCA28;" d="M234.667,356.156v-25.49c0-5.896-4.771-10.667-10.667-10.667h-23.833l34.5-57.49V288
	c0,5.896,4.771,10.667,10.667,10.667h23.833L234.667,356.156z"/>
<linearGradient id="SVGID_1_" gradientUnits="userSpaceOnUse" x1="-37.4431" y1="633.7652" x2="-29.9322" y2="626.2553" gradientTransform="matrix(21.3333 0 0 -21.3333 996.3334 13791.667)">
	<stop  offset="0" style="stop-color:#000000;stop-opacity:0.1"/>
	<stop  offset="1" style="stop-color:#000000;stop-opacity:0"/>
</linearGradient>
<path style="fill:url(#SVGID_1_);" d="M252.549,216.333l-0.156,0.241c0.363,0.345,0.926,0.448,1.237,0.84L252.549,216.333z
	 M173.711,337.612l-0.186,0.286l39.809,39.81v-36.375h-32C178.316,341.333,175.712,339.786,173.711,337.612z M253.852,217.635
	c1.342,1.797,2.148,4.003,2.148,6.365v53.333h32c3.833,0,7.396,2.063,9.292,5.406c1.875,3.344,1.833,7.448-0.146,10.75l-64,106.667
	c-1.958,3.271-5.458,5.177-9.146,5.177c-0.938,0-1.896-0.125-2.854-0.385l21.719,21.719h119.802V326.449L253.852,217.635z"/>
<rect x="149.333" y="64" style="fill:#689F38;" width="170.667" height="106.88"/>
<g>
	<polygon style="opacity:0.3;fill:#FFFFFF;enable-background:new    ;" points="149.333,128 213.333,64 256,64 149.333,170.865 	"/>
	<polygon style="opacity:0.3;fill:#FFFFFF;enable-background:new    ;" points="181.333,170.667 288,64 320,64 213.333,170.865 	"/>
</g>
<linearGradient id="SVGID_2_" gradientUnits="userSpaceOnUse" x1="-45.736" y1="638.4251" x2="-24.1462" y2="628.3552" gradientTransform="matrix(21.3333 0 0 -21.3333 996.3334 13791.667)">
	<stop  offset="0" style="stop-color:#FFFFFF;stop-opacity:0.2"/>
	<stop  offset="1" style="stop-color:#FFFFFF;stop-opacity:0"/>
</linearGradient>
<path style="fill:url(#SVGID_2_);" d="M458.667,64C452.771,64,448,68.771,448,74.667v10.667h-21.333V74.667
	C426.667,68.771,421.896,64,416,64c-5.896,0-10.667,4.771-10.667,10.667v42.667c0,13.888,8.944,25.617,21.333,30.035v225.965
	c0,5.885-4.792,10.667-10.667,10.667s-10.667-4.781-10.667-10.667V352c0-13.888-8.944-25.617-21.333-30.035V42.667
	C384,19.135,364.854,0,341.333,0H128c-23.521,0-42.667,19.135-42.667,42.667v384c-23.521,0-42.667,19.135-42.667,42.667v32
	c0,5.896,4.771,10.667,10.667,10.667H416c5.896,0,10.667-4.771,10.667-10.667v-32c0-23.531-19.146-42.667-42.667-42.667v-53.333
	c0,17.646,14.354,32,32,32c17.646,0,32-14.354,32-32V147.368c12.389-4.418,21.333-16.147,21.333-30.035V74.667
	C469.333,68.771,464.563,64,458.667,64z"/>
<g>
</g>
<g>
</g>
<g>
</g>
<g>
</g>
<g>
</g>
<g>
</g>
<g>
</g>
<g>
</g>
<g>
</g>
<g>
</g>
<g>
</g>
<g>
</g>
<g>
</g>
<g>
</g>
<g>
</g>
</svg>
