<?xml version="1.0" encoding="iso-8859-1"?>
<!-- Generator: Adobe Illustrator 19.0.0, SVG Export Plug-In . SVG Version: 6.00 Build 0)  -->
<svg version="1.1" id="Capa_1" xmlns="http://www.w3.org/2000/svg" xmlns:xlink="http://www.w3.org/1999/xlink" x="0px" y="0px"
	 viewBox="0 0 436.907 436.907" style="enable-background:new 0 0 436.907 436.907;" xml:space="preserve">
<circle style="fill:#E05B49;" cx="218.453" cy="218.453" r="218.453"/>
<path style="opacity:0.1;enable-background:new    ;" d="M100.393,280.112l0.056,0.056c1.381,1.61,2.882,3.11,4.492,4.492
	l149.283,149.283c92.039-15.167,164.657-87.831,179.751-179.894l-104.55-104.55l-0.049-0.007c-3.233-4.377-8.392-7.259-14.252-7.259
	H270.75l-0.444,4.471c-0.136,1.297-1.502,15.496,0.239,33.963c-0.239,0-0.444-0.034-0.683-0.034h-43.384l-26.504-26.504
	c-1.46-2.376-4.061-3.977-7.048-3.977h-55.023v9.523c0,5.211,2.479,9.739,6.232,12.636l21.559,21.559l-14.821,22.602
	c-5.7-2.97-12.151-4.642-18.978-4.642c-22.869,0-41.438,18.569-41.438,41.438c0,10.241,3.755,19.606,9.938,26.841L100.393,280.112z"
	/>
<circle style="fill:#D5D6DB;" cx="305.015" cy="253.269" r="36.427"/>
<path style="fill:#64798A;" d="M305.02,294.689c-22.848,0-41.433-18.587-41.433-41.435s18.586-41.435,41.433-41.435
	c22.848,0,41.433,18.587,41.433,41.435S327.868,294.689,305.02,294.689z M305.02,221.838c-17.323,0-31.415,14.093-31.415,31.417
	s14.092,31.417,31.415,31.417c17.323,0,31.415-14.093,31.415-31.417S322.343,221.838,305.02,221.838z"/>
<circle style="fill:#D5D6DB;" cx="131.888" cy="253.269" r="36.427"/>
<path style="fill:#64798A;" d="M131.887,294.689c-22.848,0-41.433-18.587-41.433-41.435s18.586-41.435,41.433-41.435
	s41.437,18.587,41.437,41.435S154.735,294.689,131.887,294.689z M131.887,221.838c-17.323,0-31.415,14.093-31.415,31.417
	s14.092,31.417,31.415,31.417s31.418-14.093,31.418-31.417S149.21,221.838,131.887,221.838z"/>
<g>
	<path style="fill:#44C4A1;" d="M219.459,263.273h-84.732c-2.886,0-5.531-1.577-6.901-4.116c-1.373-2.537-1.243-5.614,0.339-8.027
		l46.195-70.508h95.501c3.793,0,7.184,2.115,8.851,5.521c1.67,3.405,1.259,7.382-1.066,10.377l-47.868,61.698
		C227.325,261.381,223.467,263.273,219.459,263.273z M138.752,253.254h80.708c0.946,0,1.82-0.427,2.4-1.174l47.871-61.703
		l-89.95,0.254L138.752,253.254z"/>
	
		<rect x="191.453" y="160.673" transform="matrix(-0.8585 0.5127 -0.5127 -0.8585 474.4406 295.476)" style="fill:#44C4A1;" width="10.018" height="105.021"/>
</g>
<path style="fill:#64798A;" d="M137.899,150.154h55.011c4.582,0,8.297,3.715,8.297,8.297v1.255c0,3.955-2.792,7.36-6.67,8.136
	l-37.52,7.504c-9.89,1.978-19.118-5.587-19.118-15.673V150.154z"/>
<path style="fill:#44C4A1;" d="M303.014,254.202c-1.275,0-2.547-0.483-3.525-1.45c-35.948-35.586-29.491-103.176-29.197-106.036
	l0.46-4.499h44.385c9.784,0,17.744,7.961,17.744,17.744c0,9.785-7.961,17.746-17.744,17.746h-13.847
	c-2.766,0-5.009-2.242-5.009-5.009c0-2.767,2.244-5.009,5.009-5.009h13.847c4.259,0,7.726-3.467,7.726-7.727
	s-3.467-7.726-7.726-7.726h-35.178c-0.75,15.349-0.949,66.145,26.582,93.397c1.963,1.945,1.98,5.117,0.036,7.083
	C305.594,253.706,304.306,254.202,303.014,254.202z"/>
<g>
	<circle style="fill:#3A556A;" cx="131.888" cy="256.171" r="10.854"/>
	<circle style="fill:#3A556A;" cx="305.015" cy="253.269" r="10.854"/>
</g>
<g>
</g>
<g>
</g>
<g>
</g>
<g>
</g>
<g>
</g>
<g>
</g>
<g>
</g>
<g>
</g>
<g>
</g>
<g>
</g>
<g>
</g>
<g>
</g>
<g>
</g>
<g>
</g>
<g>
</g>
</svg>
