<?xml version="1.0" encoding="iso-8859-1"?>
<!-- Generator: Adobe Illustrator 19.0.0, SVG Export Plug-In . SVG Version: 6.00 Build 0)  -->
<svg version="1.1" id="Capa_1" xmlns="http://www.w3.org/2000/svg" xmlns:xlink="http://www.w3.org/1999/xlink" x="0px" y="0px"
	 viewBox="0 0 509.287 509.287" style="enable-background:new 0 0 509.287 509.287;" xml:space="preserve">
<circle style="fill:#4B5AA7;" cx="254.644" cy="254.644" r="254.644"/>
<path style="fill:#E08F00;" d="M232.604,135.629c-12.546,0-23.057,10.172-23.057,23.057V424.18
	c0,12.546,10.172,23.057,23.057,23.057c12.546,0,23.057-10.172,23.057-23.057V158.686
	C255.661,145.801,245.489,135.629,232.604,135.629z"/>
<path style="fill:#F1F3F7;" d="M490.299,158.686l-100.366,7.46c-9.155-43.401-37.298-74.596-86.125-74.596H102.061
	c-11.189,0-20.344,9.155-20.344,20.344s9.155,20.344,20.344,20.344h167.502c13.902,0,26.109,10.511,26.787,24.074
	c0.678,14.58-10.85,26.787-25.43,26.787H102.061c-11.189,0-20.344,9.155-20.344,20.344v1.695c0,11.189,9.155,20.344,20.344,20.344
	h168.18c12.207,0,23.396,8.138,25.77,20.344c3.391,16.276-9.155,30.856-25.091,30.856H102.061c-11.189,0-20.344,9.155-20.344,20.344
	l0,0c0,11.189,9.155,20.344,20.344,20.344h198.697c49.166,0,77.648-30.856,88.159-74.935l120.032,9.155
	C508.609,218.363,502.167,187.168,490.299,158.686z"/>
<g>
	<path style="fill:#FBD303;" d="M170.215,68.832c-12.546,0-23.057,10.172-23.057,23.057v318.05
		c0,12.546,10.172,23.057,23.057,23.057c12.546,0,23.057-10.172,23.057-23.057V91.55C193.272,79.004,182.76,68.832,170.215,68.832z"
		/>
	<path style="fill:#FBD303;" d="M260.747,68.832c-12.546,0-23.057,10.172-23.057,23.057v382.474
		c0,12.546,10.172,23.057,23.057,23.057c12.546,0,23.057-10.172,23.057-23.057V91.55C283.804,79.004,273.293,68.832,260.747,68.832z
		"/>
</g>
<g>
	<path style="fill:#F8B517;" d="M214.972,68.832c-12.546,0-23.057,10.172-23.057,23.057v224.805
		c0,12.546,10.172,23.057,23.057,23.057c12.546,0,23.057-10.172,23.057-23.057V91.55C238.029,79.004,227.857,68.832,214.972,68.832z
		"/>
	<path style="fill:#F8B517;" d="M304.827,68.832c-12.546,0-23.057,10.172-23.057,23.057v126.474
		c0,12.546,10.172,23.057,23.057,23.057c12.546,0,23.057-10.172,23.057-23.057V91.55C327.883,79.004,317.711,68.832,304.827,68.832z
		"/>
</g>
<g>
</g>
<g>
</g>
<g>
</g>
<g>
</g>
<g>
</g>
<g>
</g>
<g>
</g>
<g>
</g>
<g>
</g>
<g>
</g>
<g>
</g>
<g>
</g>
<g>
</g>
<g>
</g>
<g>
</g>
</svg>
